<mxfile host="65bd71144e">
    <diagram id="3ORga0GGdDx0wntxBqB9" name="Page-1">
        <mxGraphModel dx="1241" dy="1003" grid="1" gridSize="10" guides="1" tooltips="1" connect="1" arrows="1" fold="1" page="1" pageScale="1" pageWidth="1169" pageHeight="827" math="0" shadow="0">
            <root>
                <mxCell id="0"/>
                <mxCell id="1" parent="0"/>
                <mxCell id="2" value="" style="shape=image;verticalLabelPosition=bottom;labelBackgroundColor=default;verticalAlign=top;aspect=fixed;imageAspect=0;image=data:image/png,iVBORw0KGgoAAAANSUhEUgAAAX8AAALNCAYAAADHrmGEAAAgAElEQVR4nOy9B8DlVJn//+Te+77Te2VmGBiYkY5SVUQWFAUVsRdYZe1rW9vP9l93VXZdXCsq9i6uoKKoqAiIgiIqggoDjJSZYWZgeu8zb7n53+Qm9+bmppyclpPk+5nJe1NOS3LyPU+ec5JYzWbTJgAMwrZRJcP0HRHph0hOgrGpSCpvYjKc9YY5VkpAmzWlmGDs5egNmbX8fvgGazwAdGFZVs8yGoPWMfF+7dgV0nOQi6TkE5Nx642tbBfKBsQfGA8agwSK1ggAY4D4g8LhNwZoBAKgEfDwrP8KkHUvw+Eh/qCwdBsBf035L3r9klzURsBAhH39sgrSBuIPCo/vFbJ9ocIdgQLMaQTyL0E5gPiD0mCOPKkndl9LfhBM3C0Ty8RCLe8CACAbxx0U7iQGAPQCyx+UFqcBcK0yuIEkUp5bi7x87aLIKg4sf1BqXKly7wLKeScQu2fl3eV4bDJOqJPQWtyIjCD+oPS4Omj5cwAUF67GIiYSxB9UhrJ2AxTI2DUCWRa3bsvd7uTKFb0P+PxBxSjXQ0D57Um/7z+1LEU77LLKaycuZojPUaCEt13A8gcVpKS3AGE0iq0O4Tep7TCpLLGkFBLiD6qF1TdTTrSokz4J1O6mSQiYqSzSrH4+kqJD/EH1qEoDoBTD3D0yX/FRBuFneLkpfP6gUpRnlLoZ+6Ba+LXvI7fwqy1p1kaHJTwsfwAKSPJHTXSVomRwH7eIiKLnwI6cZYrHGh6WPwAFI1/hZxxwqMviF/t4lhqUCD9DohnzhfiDylFkw7jIZc8LrQ4Zia9tziT8WfLwQkL8QaWAeIphrsWfh89djfBnFX1eIP4AlAG0apFoH9opIZ4uIP4AFADThUQbGQ6EWuE36Ixw7ijEH1QPg65bYfJ8LaQRMDlkskZP2ZTs7uEdz6/L3eOnDvEH1cJUDYvBlOIa4+uXmVZmH70pZ8Ojr9HIFg/iDyqMYRdzFmDxZ1grEpA9DfEnePV2WkP8gXSWLVtGf/7zn+nuu++m5cuXu+tWrlwpLf1t27Ylbt+/fz+NGzdOKA8nDQeedPy4cfH97fPnz+csXT9PetKT6IQTTqTTTjuNzjzzTGnpGmPxyxzmLjoqJ28ELX4fq9lsFmafgbn853/+J33lK1+hrVu3kvMShbFjxtPkiTNo5tRDUuMW8lU7Ch7q7KSTkpAdkdnuvdtpx+5NtP/AbhptjtDAwABdcMFz6bvf/S6NHTs2exkUPz2lYkinaEOVXqZk1eXdp8y+/szi7z2YF4oAyx9ws337drr44ovp5ptvbgn9TLr2M5upVmt/NKUzUfcrit0vagV+qbuNwvMU/QEW2R9liRPbqPW+8IYF2J/144Tj2nZ03OC6qLjhdW46dn88f2rao2S37Llma+HtHz2VJk6cQEcffTS9613vote85rUJRyG8J3KC6SKPUf7a4bX4Y4DlD7i44oor6O1vfzvd+DWbGo7gt6aa1Z6siMkh2CBQ3C/1NxDe5p5WIdwAWOEF1lEcdvxylID3/IbjR4hyX7i4MHaM0KfF7TQGdqARaIl/s9lqAJqthmDUvRN4xfsPoTPPejLdcMON8QeGGCz+XN08avz8RbH40+4I0zIMx4f4g8ycf/759Ifb7qBrP7uD6o7o+8IfY/Wnib/fYIQbgM5U678b6GlYQncLPUQ0BEFLOcqCb+lmSzQdK5r6Ggc3jrcttjEIpx8IEyvkgXL0iL4n7P3xbFfk25PfGLTmW4X3l5st4W83Aq0GYHSEPvTFZ9H2fato/foNcUfLDPGXLfzcuxSr1ux5R0Toj6dW/OPiQfxBJubOnUtf/9BjNNAY6Aq/J/p9Vj/FiH/Ecjhep1GoBdKt9cbzt/fE8+JGzLr4FnPP1OwVakf8m9664Lwvvs1AHH/ev4qCoh/MI87d48eJ/PX+9DQAdveCblv7/tT0ytaedybn0m7/jrqTcwcwMjJMr/nw4TQ8PBJxZBhkSLX4m2jxsy0ylyOrxd8JzbnDcfHg8wfMTJ8+nb71X+tbouuocKAK21bql3EdcQ4KXqzwe6Jeq/feSXTma+1twbuCcKMTK/7OQjMk3EHxb02jrfnR0VaanqBbzfYUbAhcq5uofwqlFdUIBMWbvOPROW4xdwUUEv+O5U/UEf5gI+DfATQ7jYAv/qPuuq984AFqNBq0evUqmj9/gZ+1UvjT57WTRTJNjsibrKLixEdLiQfLHzBx1lln0dte+POWxT9I9XqjZfXXPXdPS/hbClwLWeBJ4u5vd0S8Xu8Xb2fdwEDLMhnotfrdeUf4WyaLNeA1CKG7jq7fqFv2nv6ClrDbzjTi/QaE2bkSWvpIjlE8PEwtK7nXBeSL/+io7U2BO4Seu4GQS6bvDsAO/VLoLsDubySIetJsh6F+0XcbhWZX/L3fdgMw4v6OjA67dwDvveLJtGfPHgpkH4+ASvCLtYDwJwSOT4MtgukWv927GAssf5DKZZddRvf8fRnZL7BdIbFc87dt8dstBbYsu239xwl9hEC7874o1kJWfr07DbRqaKMR2Nboir/z6y4H7gR6OwcCP968I/g0EhB/x/sx2r0LcMS/PtxugJwGwG8InDsG8l1P7nx7B5x/o03bvWPo9gV4ItyMbgR84e7/pUCj0Gvh++ttLxH/DsBfbvY0AL7137b0/UZg1BP/UbcBGKKjF55JJ554It2zdGn8yVft5okMqCvTbOlot5IV32LA8geJbNiwgebNm0f/97/rWiI8xrX6ay1Vdix/1+K3ap7l74i/FWn1hzuCfbeOI7B1z43T+fUFf8Cz/hvtX2ddLWj1RzUC/nfpIhqAoPi7gu83ACO9DYIj4q7oO5b/cHfebwQca9+x+p27gu4dQPsuYMSbb7t/gsLfP0XfAYR+vVuF/oaia+V37wB6hT9o9XcagYDv3+kAHh4Zok9c+XJ66cXPp89/4Qv9J98w4Rd196THT1Z7Xou/u8iYQt+dAms0O1MkiD9I5KSTTqK3vfgnLfEdQ436gCf8TgPgi77zWw8Jf/RdQNe9Y7lCHRZ/1wXUClRvWN0GoNF1ATXq3QagFhB+f5nqXqETxL/ZEmdnCot+907AEfDRltDbHcEPT84l40x+Q+A2Bs78SHu+3dFKqeLfK+i+myfq1wtn273WP/V2+IZ/m82Azz9g/bt3AKO+++cgXfadF9L+Awe6xywX0U+OzZRmSiBm8eduPKIDZnb3cIl/4O6REbh9QCL33HMP2S9yRMSxGLuq2rTbVn/7t+kKuqOwvS6ftt+n3/XjrR+xIsS/ld6wRQdbK4INQEf8/RFGgbuAPvEPE2gMRj2fvSvgQdeP1wA0WwEc8fenkZagR4l/eyy93wjYPY2A27g4mfkCHnUXELTS+lw8vo3YfwfQcQn5It9Z7lr7HfHvuH78IZ/thsCx+pu+9T86RIONCfRfl15KH/zQh3IWfuGgnCTnoM065hR9XiD+IJZLLrmE5sxY5ImHYya3VdQRHMfqtx0LviX+Tdf1Y3XF3rsL6I6/D98JWJ27g5HWn1qnAXDm7XYDULdpaLhG9SGrY/133EPBqdG1/qkWtyftsjiXSXPUc90EGwH/TmDEs/yboz0NQNtFEhD/UTtgXXcbgqALqNePHxiZ0+y6a7xNFLzqe10/cXcBobsICpanGeH68cS/x+3T7gB2rP8TjzyHvvzlL7fFXwexetW/QYbwqmiQ0uLbcRukFiFwT5Gx7E5wuH1ALBMmTKBPvOtPLeEd0xLdgYCvv+3m8f39lqfqlify1PfbnQ+KP3VcRV4D4Ip/rfNbr3fnG43u8E9/qgfvAurtu4u4i8BfPeqKfbMt0p5gu8teI9D03D7u5IlksBHwff2uwAYsen9MvbPO8f37mYb9+O7qjmj7hQt4gwPWvx82vD7o7ukuRwzx9JeD1n/A598Wf2d+mL78k7fQLbfeSmeccQZ3feF3zQi4ehIC5uXj5xb+TBnyCX8wKCx/EMkvfvELGjo47ApFbbTuuR/aAlOrtd08TV/8yRNzos4dQK3mPZZrBxoC19yg/rsEJy0nXJNcy98VfW8ES827GxgasaOF3xN//8GmoCEdxrWRm82O6Ec2BM1mj9j3iL/rK2/2jqzx3qPTdbe0LX531zvCT31ibgXuogLKH7qQww1H8ILv9/37T/TadrcBsJu2N75/tGP5t/dxpDP6x7H+p0ycTV/60he5xF/MehS09rmEP2KrqPBHxlPl2xIXfmcB4g8iWbt2bcvaHnRHhDhS1ayPUq3pjO8fde8ALH98vyP+NV/MPeGvOw1C3WsYbAr6gNrh2las1bkVaG+33cn/1553GoWR4SFXsIKWvy/+Ti0eDYqeJ8JBgh1uzYCF3Cv6zm/bjdPr9uk2AL0PU/nC320EeoU8cNcT0QD4DabfaHatxnZg5/mJHr9/YH07Ybs72b6LyCn/cLeDtyP+I53XPLSt/674+x3JE8dNpxUrVmSuJ2JCLSD8CQFFhJ+7IbPDcbOpclbHUJKRw5gExB9E43T0jh87yR0N4j4Ya7eFv2nXW41AvTvax5nsWlf4nfWtMK7VTvWAe8fudvR2cvErsi9oDpbXkWm5Lomur7rZsfLbQ0d9d01X0OxAx2afa4V8aznUIWq3Rb9zJ9D0G4aRnkYg7G8PW/uB3elgBRs8or5wXdeZ1wgE3D/uNuptACyr3UB2x606f5rUbQSa7rJtt906/n62XTyexd/p+G2vb5eLXMt/3bqHM9URPjePWi+zduEX3b+chN8BPn8QybnnnktnHvUO198/UB9siW7DG+LZFv7gOP/gsE/H6nef/q07/QPeuraJ3vntefjKnWlbyY4I1b3nBdq+6WbHYrU98Xf8+u660dHeMM3R3uGNgXmHtoEbNSSy23Hr3gF46+Os/XYD0O3o7eAJd7dh63R19zQAncI4I5+oK/z+k9LdQ+I1DF7wWidcrf99RZ3GrNn24Y8Mu78jbgPQ9BrRgNXvNVruMfNK6Rzf79/6Qdq5c1diveD1g6eloN7iD4VI9/xkKosdXsEYN1ueNpfw230zbSD+IBLn3S9jByd2OmX3HUgWhSATx0+jPfu2e0tdqZo0YZr70ZE4HKHqCqD8ajl+7ORM+8GLc9wODO1Rln7cfowfM4n2HdwdUZ4JrfLsbS/EHNYxg+Np0pTxLet/fWLe4iKdl/inm/i8Liw7amVKXJ7abXNGjBN/uH1AJPfddx995aN/okH3qd6Blnjsa1vylvdQlzvyx/LuBByL1FvXsvwnT5xO+w/u8voDutb/lEkzuuIffvcOOV+j2uYKW9tC9caoe376trXftvCdF+qMBqz7ruXf9n03A5Zwd7ij3RLHCbR3/27XPeKPke9xAxF1LXy387jbqRrsWG3T2znrzzv7MraVz4GDezsd3e2/foe4v84fHeVPNc+yJ8995v7trHfvrKg9KmqCK/5BkW+Xxcl3V+v42u4onlEa8R7marTu3Pa2wnf7Rez2e4jI75y2WuI/gT713X8VrziqRJ832/BWUeG3ExeZ4mffZ67bhFjR91fA8geRLF68mF729I/R4MBY78neRkvY622xt+resM9axw3UdvPUvTC1vt+g+8clQvztHjFvdt5C2Vk3Ghit0gyOXQ88xWrbPZ2/Pa85iHH59PYBBMIExN8Oir937x0cox8Uf38uSfx94a/1iX+376Tz6oxO57rfKPQ5fjr77Q/d9N0+/mscRnuOa7PTQe2Lv/P32ze8l4aGhiPrg2yLX9x9xJqORFdPovAzlERwp3nG8kck01kByx8AEIu4ZahG9GVEFNm3zK4ekbwki74PxB/kQ2/vKCg6skf1pEQXGdXDkDxjyuw+fp5cskbLGh7iD0oCWhKZ8Lt51FrCXPZ8usufKUlea1/hzYtQPIg/AKCDKumWMZqHK7KI8Is2bJosft78IP6gHPgD4kEvuat5Tkgsn2IDXGJEtgT9JYg/AIAdI4dyhkJIGI4pBGf87KOB0rJLThDiDwCQTi6jeiSLNu8+cI/jVxwrHB7iD0CJ0TAQUSw/2aN6RMoSG48tpdw8YZx9ExB/AEA6Jg/llDSMM2spZKXPPY5fLFuIPwAggSIM5ZSUqb4OWsFRPbH5ZksR4g8A6EeVNSpTuw2x+HU1GvFP7vLFg/iD3MHDvsBBZESPnAwNH8fPlVs8EH8AQJcMQzlldu6K+PgzIyk5c57c5UsQ4g9AwdB3pyRp7L7Czl2G5DnzTYhnzDh+xvAxCUD8ATAOE5xgEoRfSPQjQih7eIsxJXMe2Y1NN4snC+IPAAghQay4XTwxISR6frS7eUTzisxYTPgdIP4AgAC8LwtgC5in8EvoteDKUWgcP2+nNEMwiD8oCLk9P1lwxI+bTFePaMZcyec5qkfqcE6GhjlD2wDxBwBEordjNxRCyVBOjiSMEf6UOIzxgkEg/qAP2NjlhuXt1/qGcUaEiInAewdiR61kiJ/9OrC5H8QK5su6QXQUEMQfuGS1IPhzMWEkCz9V+GyAScIvWhbe+DznmMfaZ4sr3rkblSbEv+KIVyJQJmR06rKlI1n0Q5G47GQua18sMk8HOM81a0csQfwrihGiX/wbgeohW/QlI+Ic4StZwMfPFTMpc9nC33tbA/GvIOl+STUXqGqtt1r/7FxaMX04HZBWmRpMGRa/FzHKuuUtR5ZIQp27sXHFhT8tPMS/Qgh3RgE9aBR3WVnJ6tSVk3F2Jebp3O385R2dw7aCIRE+IP4VIO9bcVAClIq1ePJcI3q84NlihNw8PMKf8Y47a16sri+If4mRYmVowpySgB5M9fFHjsrJrsTcwq+hwmbNIlb0YxKC+JeQvHz6oERoEn2OEYr8cQORuDpoOS8bU69HiH+JgE8fCKNK9CW7/LlG9fCNxmRLWyLiN+hsLRzEvwSoHswml6KP76zCY14SMUH0JeWdlawNJW/5eEcBQfwLDPtJh1hVA5uMOdeyiyFqDosM5RTNirfsIj4xBiD+BaRIHbk9FN3orzB5d+wKJcEposJZSzPlGYNldNlB/IuMoRrPR6l2pjRkFn1ZQzljkxUZVM8WgbfvTHgoZ9Z8BIH4F4Dyu3fYOuuAPkwYzcMVPxCJu8rkVdc0FxjibzDlF32HIpe9fJg5miebH4Tb2yK/N1pm8Mzj+NPygfgbSGF9+pkpy35UGJmiH6llOkbziNVDXaN6spJmK0L8TQbaCKqAHTnbt2Qa0jrBFY3jTwPibwDVcO8E0TFML9eES0i6iS/in++d1VU/VA3lVBVPzM0T3gDxz5HqiT6Qg84xs4pEPxCR29rnNoBVD+WUc72qHgUE8c+B6vj0QTFR3Kkryc0jLPp5DeXk7pHmjBcTF+KfJxXUeJ02K+Ah3bSX0anbn042i19WGbTC3QUg0LsQ247jG75agKUvAA5Nfsh08QQi84hbMGh1hnKybcwm/N1v3UH8FVJ80Te9fCCI1LMlMzFZo3m4hd+AoZyKRvTwCr8DxF8ByRoPQQWGw+byz5wW92geL4rujt30y5bhHobL1ZO+szx9zeFNEH9J8FQUQOgEMA2TRvP4MTgLINyxmxhXjvBHpqJA+KM2QvwFKb5rBxQD/a1k3qN5hKx9ZQ2GvBE9UoU/JVZUPIg/J2UW/eKWHMgg19E8bK7u2Mg2f2Q5ws/l5vHWiAh/rKsuPhbEPyO8FaQoFLv01YHpPoDPtc5HrGhnS5G//qkW/pR4jHEZ7xsECtFdmZYqxJ+R+JNcDrksx15UBJP6SWQZQYK3G7zCz34pi/ZcpAi/RD9/qux7myH+MZTZreNT0psXoAM7bpHXYcNfELXCzyj6mfNPF/2sebGKvg/EP4L0SlFsdSx26UGuxIo+Z3KCfiadHbsiUtDXhPCIvmQg/iHiK0XxJTN1D4q/i4pxfC04SA6ivn3RzgWd1r7cIOkduyJ5ZqEmN7niYYem7kw4RHFJ3YOYADfc9lU1hQGFpb+qZLw+vOC8V1XPdcoRN3ohfYOUbj473eLnOyZ2sssnlLC/WFnLHz59ADIgqc6I+PallCNDp27fGi4XT4aI7Al6q7P5+MOhKyf+PL6+olH8PciI1fovcDddNqQeB1nXSc4nJ/1uQVyy9e2inJwqI/7xLXh5JAM+/WLDNnrTZg4pRKzVyCf6ohZ/rh27gv0TGQ301A2yrvPSi3/8iSyPEqoW/fIcKZBKiqtAMLnMMYVFP7EQ/b0XclAl+nwJxsUqrfjHa3x5pKyonitNtqs6ch70o+P4iTpBhIdwcsdMWpG6QTCYoOhrpnTiHy36phxuOZRrb4BJ5Cf6odxE0hEZyZMhb+nXoeQE05IrvPgna3y5ZBI+faAP3ZVJwmgeTT4q3hsK3uKJjuqJi1BY8YfoZwkAKoGUeiDDyZ49olrNZ7T4FZaAJ7p80e8NWCjxT/fklEsFi+rTl0EFdlEQQ3pOZBjsGkfyRK7ltvhV+fhV1f7edAsh/lUYsROknHsFjEK001pI9CWO5NEQjzdB3jt2ZXf6oXjGin+yYV9OeYR7BxiPsKVvC3UKs43jUDWaJ2PEjPnKHsoZF8JfMlL84zW+nOpnnnunnMdZHwa4Y1Rgi9YMScJfVDePAZdVsAhGiX9VRB8WfghD3NelQEXdkWDti8WXdNNv6GgeMedZSgi7Z6mHXMU/WeOrpoB5wXdTC62uALJFP++OXW7UalEWY5CtJP23aFHxchH/dMO+nMJv1u2g6gsGqEDLTVLZRF+xm4cj4fR7odg4DJkxCL+DVvGPN+zLKTlmuneiO3/SQwLdb3XIxRsmw68fSIuzCAzxpXfDchOZL2+nbkJcpoiMwu+gRfzjW+JyykvGOqsJdtEHLJTzq15ShF9pp26GDEQsfgWduiLCL+rfj0KZ+Ccb9hW8aCD6QBfaT3LAiZGD8PPIS6zDSKRTV5l7iCEih4dKqvhXzcJ3MMuPH1+ATMXJvexALbLuWiT79hPTkCP68cEEhT81z2yJs+fFJ/wOUsQfop9lo2oELf3ynrLCYP5IKnHRZxfuWKlmjJ8WjFM5GfPncfUwW/vsgSOjC4l//Mkvr4KUzr2TR3mdPM1XODGU7F/gwOV0DG1B0clL9KODplv7qdmIiH5EfCbfPle8/qiZxb9qgm+u2EcXwGjRD2VfLP0vYgevzPJKspBDyWXYwOgeYk2VTfizF5NR9rn8+71lFj0VqeJfRZeOQ2lFP3PgrOR+YIBUQi4eoVT4E+IVfl43D19fHoPwx94pMCB4EsLRY8W/IoZ9H0US/aJY+aCIiPv1s0VT7dv31vKKPkPeWbWD99jI6sfrE/+quXV8zBb9Yrp2AA/xzjA9rjJFoi/q2+fNN7hFVLwT4ybE5k7Yjvrhjd63oREKF59CSTFT9AUviBzKXCz/PYjDWNHn9s8LunkSAvA6xJh8+3xJp8Tr3dCApc8bQB8GFaW0FOYYu+a/wnsAWQdCRMU5gkv37SdsVDeSRzBecjJ9NCD6WQOoQI1Pj5dy14CKoPkk6rtjSIvLbjVnbZ94RZ8ZkY8dBPJlTaVR9kvdTLGXlHm5Tx1IQU8fQHoZREKK2p59wq9A9DkLI5xs1nhZXfdGfcxFJkUS/bwtfcXJVh6dAp39HPKVLq8O3fj4ajt0eeBtGOXpQXJKpRN/iH5uyeVPEZ/DKhh5duhGB2Oz9jMmGtqsqlWxo34yR8+woYfSiD9Px40+IPrdnPN2VIhjThuT4/HU3KEbGZTRR87vduET/fT8eNWeN79QeC9CYcW/SBZ+8lqRgMDBHDEuL+Z06LJH5tUI5o7drPllDpgcP/NxCW0upPibLfz9mFIcU8oBVGF3Jl4Bi0pRJKRc0ffWinphDBvNk7XRkNWBXAjxL47Y24G/maNJR9QVqRVjzmEMUbcXJb7lUOLbF9XWFDePcp3gdvPIiRcfnq8ERou/+aIvWACIPjCMPEU/Y6rSUO7mUdbnx+j+iglmpPgXTfTLZ+mrKWA5unv1keux4hAc0WoU68M2zM2TWfR53TWitmVKfKPEH6LPhynlACUgsW7I9+tHB1cr+rz+J17RF0W0YzeOXMXffLH3KYnoa0gpa65s1q0xFcEjf2e/3rsozS4exaKvTneiRZ9XL3hEP0teuYi/+aIv6HlUXH45jU9eBxnOn+KQ8ToQ7dBNUS9R3dDdISxP9LmyT0Wr+Jsv+tGYUqxM5RC4Qu2sefFoOdoAg8ng108OzhhUrpuENVc9sdkzETE5ed4Jp1T8TbGUsxZAXscpP/LLwFiJePM1iPydMkWmPB26om4edv3qhpTrEmYw1DgrutPZrUT8mcpjxNUpWAiTfPkQfaAIuaJvx21Iz5c5AL/oi3TqityZZ/Xvi4i+n7xU8a+EpV8Sf37up6BQmHQvoc9fJt/Fo97SF9GgTGaSiH8/scFIPzj8fQK9kYXEvzhi7yDo2jHeys9sswCFmNadkaU8ebl3UoOkbBTxODALv4joByJw+feFhL8/eW7xN9+1I9J9kiUgH/J8+nDrVBapNwERrhIhK99by5iGchdPTKBMJhOviyc6icwlERP+/tiZxJ//BOWHXP+5OPLuOBSLvopjoM9jAXjRaOUzBZMh+hEBeX37IteTiDnK4+O3o8z9ALHib4qFzE6J3DqJETVY+srPKVqBoiNYPQsn+tniJiaTKTUu0WdMm9/nD9FXk2weom/MuSwWJnUD60LEbcEUKt3tzQa3iydareX59hncO5yVyo7PNJKO+BfV0jfKrSGSLKcvX26eHMCA1077vqn/7ontdMpuskT9Iez58Pr1E1b3h1Im+ump8Yo+Y/J9NIrnxy+76KenJrwLso6BEcJvRCFKTyF8+9zWvhdSmYtHLbz5xbt9jBH9krl1IiNrOtiyLlSTqKrvRVObVwjRjwjI69tXI/qyfFlx8fkS6Bd/Yy4kM0VfKGlO0ddl6WeqvDC4S03VRD9bXNYIbKLPe33bnKLvx2qYI/Y+JXLrpFRwJdPbHwMAACAASURBVHlyRMycj4DwsxutxlXMSsDTQZkptKgRnBBAt18/Pr7a61tU9H0M+JiL4EVeCAs/W4qqZQ+yyk4VvUptRBUya24MGYgKf0g0cxN9zmPJ+7nJiIRcchT/Krh1sqVozt2OPrnT6L5WhIzmQeQIyD5Xkt07KQF5P6WYLX9BreHKMyJeThnbfTNtchB/M906QkkX1pefFlJlI1B82deOjkOm3Kfvb+bPiNevL3p9Z+oTk4iqD8xrFH/z3Dt5NUDmi75YakAGZjaMRRR9bkR31g8l6uYR7cOLia9Q/OHWkZZvxgSERR86z4WZcl0whOpetFgWz7efKZv+eIzxFYg/RF9avhkTgOh7lLiXNi9nGb8RnMHNK1otSyP6ql0L7QASxd880Vfn1kkOoEvsswcvhugbVpwQJW5ZIhARfV7RZs47JmRxO3RV16ve9AXE3zyxV5e0WRe7NF9+3m0B+nwzwnbAZJy/Qol+wTt0ReF1Ewlb/lyHRdGxLLtbR1qCjBed2VUeqCDxnCvszGVIvj9kwTt0u/H5EuAxAoNxMoi/gKWvWEXKLvqlsfQVYKQTRuPdjJabJ1miH5OWqOgXzbffjS9J9Bl1LBwsQfyjWwtmTHbrVEX0+doCjRTQ72Nka6MImaIfkR5EP2O82IXU0JGbG31rWNMWyFd7soJiry5/3uD8ql4V3QICGO7eUe7tiYuXk+i7cftmUkPGr/UWGlERRFtU2ZTdrSMlP+OtfJBEtvsftjsm+XfsYh9USU0+HEqW6Kd2Eai/OrgbnEyJMNzLBFY0OG7etCiJGiE0S/SllKZofvwCenqAHfjLFDTrpt5QsiqvqGvEDyVQHtVP6cYFiAweWpn+Ja9MBZBDmS19YT8+/yYAMpJB9BMCZqrzEYHz8O2LP2dlkOjHbGAb7VM4tw5bqjr7NaSIfsJmaacIrYex6Lpp0teRG4rBp5c9yYi6dvIS/b4oMlw8KelEi3+J3TpmuXQYQupy62gU/SJ6fowd5CP5YGp5r34wtES/fnTcDFeiDOHnTMPum0kNmbyWoRwN1oAy4MqmAK4cvuB8op8tj+zp22kBjERU/Yq0rzkjw7UTEUH07p/HtdMTOifhl27tZyiDss846hbdvPMvlKVvR85Kzok1HeeysaQZr8Za6ErIZvYLHWOIfkx8vgSU+PYzeiWkv9VTneiaZelz+zUzJqTCl69O8FVTlHLqgV36BT+6zL46PqRy0WdMVbRfwU8mB9EXlMa+YNLEX/Rkiqas09KXUiIdoh97wUFEQQqFEn3GlPld8t0kZDyo1beQGpo7SBLc4q9ebJMDmOvWSQmt2a0jPW1QbhSJPjeJd6wZMspR+O2+mdSQyWslaVdm8YdbJ2OM7O0AP5L8oCCISC+CwjFN2dz9QtmIRJDlEeCu04JtUVe4pSkCf3xpBmt7S6r4523h6ytH1qD8fhsVfnzFOSlJrviY070s+zsgmS197vjREYXcOyR2PGz/L2caIn59puBZ8w9v8X5ixT9v0S+kW0eHHz8iIemWvhl6BnqQaOontFm5+fRT41dY9GV5K0IB+sRf1m0aRwCx/DkTEbVwkjapcuvEpy9H9KH98eRl66v28uw7sDNDSUjeQZB492rMZxRl7ZNiF0G2d/uwp8scQJ8LhCe4WRZ+/2q5lbXQom+OB8ZgJBwkWYaOZENGysvXuOOHZ1JDJq+V7NuPC8A/1DNv0a+QW6d/ddksfHV2benaBNW3AJEZ8m5Nj8At+vzemUASYheCdBeXJtH3YRd/k9w6GZBSqrK4daSmIgntYlZipJ5YNT59oXQkGS3SRV+Wb583//AWxgzixd80sdfpx9dl4cckCLdOMvnth/r7CNZ2MFub2S0z8ydgZO9mbLLCV2uG+IaKvqwugIzpSH+9Q8ZySEkge158pSuMWyeUTFlEHzgovlWSfZcrQ/Rzvd3gSUeWmrPCZ4g3YrdIyiAzSo9btppdWLeOkWoP/04Ryc2nTzLqsS0lHbtvJjVk8lrNvv04Et7qCbeONAon+vJbD0h/MZBx5lPFKi2+sFjLueWV7pvPSfTjgkW4fTSIvrSDIC8Gfyz2hMx369iS00vOCY1BmIQjwnrA8rjrS62H7ColUnxloi/Lt8+bf3iLJO9IQ6uFr9wVZoilH5uuaRZ+J8XERenoUv7SjfNMwo6YNGQZmROfdafLZcwcPaNXRNCJorcrwVb5egeORKRZ+CV166i6NWH3aaqj/UmXCml1BrK0lVqOX6JYZ/ffilvKYimI+vRlBRdNiFX0fRox68Uou+gX1q0TSE+bykLO1ZCD40ySe0feWxTELhBZNdME335W4XdoMEfkSFwwGHtMvrZAGtLFWWqCISsfWgyyYohPv9MnlbNPnz8d1qDsB4o5y4iAYu/2KbuFH5Og+W6dbmIqXDpmdtSaWapCY5hP31jRFylDeKsG0ffhe8jLMAtfPL+s2UvISZFLR5Z1JJ0cvBRlheVQJp1+K7wQDlwyn35EgpkDxEbRbO3LEH1/M5v4V8XC15G+dNEvkltHbguADmIFJGpQsXz6fVFliL70/gW1fv34zXaM+GvrQDFA9DW5dFQNz1Th1gEholoZk1qeRLM0WyHthCWm+KKuGZsv30781BVsASLXchRLhugzB2PSzW6gRpYCcBWIJUaOPnz5Xr3eJIri1jFFx4qCXu1PumNS4U/LfqtvgmtH1MpPjCbL+5HxwpXp5gkHSni9g0BBWGLkKPjR6Uu7V5WZWl9KykUfrUDhkHsOs5mi0kRf9I6hbyY1JNsWmS7vDBevDNFPu4tL9PnznQ8+VVct9v2rTRX73oRVuXXgLmJBhX2vt9dbdulN8uf3RZcp/NJEX4F7JyUgq+tO3jd8DXTpxKdfPbdON2USukgy5wXKgcmiz5QeoxLkJPpMQVO1NFvhBcb5i6k63DqhBINLcouasCJzANAh+11BFpufKawKd39UHiSjZuh270QHTHbLcJQjbotSd7ocOMb5m2nh9682Vex7E1bhfqmM6Js04qZkGOveKYlPP1PWki1+P7h14OCwEid93Ob777uPTj315OTIAAAAIlm3YYf7yyv6PgmWvxoLf/ny5XTklc+n+sRBd7k2WCerUaNavU611q/VaFC9NV+v19q/jdZUq/es6xgTTktruzNkDdRpeN9Bao6MUnO0SaOj7V+7btHo/mF3vumsG2mtc9a35t3fpu2mYzfb89TszneXyQtL7rKTp20HLBq/DK3y28O2dydu9fxalkU1Z3L+We3Jak2NwQGiEZvqVt2bau4veXn5Zbj93d+hp17+6vZyKx2rZrV/Lcu1gO3If+31zVbBO7+tcraORHufbXetW3b3n/fbtAMpuPs02rlPCe52t/pFVcOI223L81L4rgrLm+kse8fL8rZZXpDO5B3Tnm2tPzXyjkM37p57NtL6K+6gx135ArKHRjtWme2dq95z6C8HCmvb3bBOku5xaPaGIbuzm+s/92f3nMx96xM7Ze3sol92p4it+m636mDveqsnTP86f38D+0je+lr7168P/rL/WxvbcMtdq9XcMO2p1o7jbG8t170w7XTa4WqB+W743nPgl6s+doCaB0c69ad9OO3OMXTrnFP3WtdVs9mdv/Pcr9NpN7/OvaZrdf8ab+lB1PU92KCRvQfb17VzjTdHW/OtutvShJH9Q+517V/jzrVKznLTu9btwHXtlGk04vpubXMvheD13bm2vXrQqgPkHCevQvZe3+Rd21bP9V1vXd/WCPVc2zXL28dOGdrzI8PDNNyaRoaHaHRopLULo9404lyx7uRk9tKXXEg/uOZnfVdcVgLir8md0yr8ox+4hRZ96dnuhRAW/7oj/g1P9OsNZvF3DmKjYXXE33J/WxWk9Wu1GoCg+AcriV8J3IoxGif+3QqTJP7uuRnorRTdyuGJfkD8O9NgLVX83QrtnLDxg9LEv+mJvx0SfwqIv+02rLWQ+IdFX7X4B4SQgtt8wesXfz85xyiwGnVG8Q+e017xb5/bWqz4W6266VAb3wiJf4SwO3U+Qtwjxb8WI/5Wv/jHLo9pRIt/67fmrxvXXZdV/N1GpJVHVvF3WPutv9IR7zorVfxd7W1dx5Yv/q1fy7ueG/XBnuvaNfpGHDFv9ly3neu6T/xtT/ztRPG3vToQLf5W9LXtNgB1JvGnIcs1Vsmprs45aPpTp1LSzt+vaP0u6LvaEokR6fiPucgWfQAAAGI4wusbTSxhE1Yzf8AdYg8AAAWA0Z6PfcIXYg8AAAUio2hLfMgrBTv0CwAAQDlxkiv2MReOHKH9AAAgEU6t5fuYS4aC9BcAX/QAAABhBA1scfFnLgD8PgAAIIUIGc2qrPzin2rhQ+QBAMBUsou/3fMTHwAAAIAyRJU2XfxTc4DYAwCATsRUtx07XvztyFkpWQMAANBNr6hHPuSlUuwx1gcAAHjh1eJ+f30jOjnJln3oHWgAAAB0YEf9uIQe8pIrzSo+RQgAACCO+GGY/e/2UWCLQ/QBAEA38UofJclynvBNHf4JAABAHdEinKTJfOIPsQcAAAOItvZZtJlN/CH2AABgENEmfhaNjhZ/iD0AAJhPRms/SCMYS43YowkBAACpCIi+T0PdyBw78Dcwg7YAAACEUf9uH2ZCTwxA5AEAQAky5LUmln136szZEH4AAFDBlLMXS0uLw/KPcecAAAAoDAziH/MCCIg+AAAUlgTxh4UPAABlw5fyRv8qbwliDwAApSFsyDd0WfidZPFCfwAA0E9I25WN849NFncUAACgjTjJlTjOPyYjiD0AAGgnzZsjLP6w8AEAwBxYXfjc4s9v4aNVAAAA2WTtt2UWf4g9AACYB7vo9waIFX9xd05cQAz3AQAAUURHaPaJP3+C6RFsplAAAACSsDt/mEP30VDpzokKAbsfAAAEYdLp5EANGYkwh4bZDwAAimET2hifP8QeAADMJM5/kk1wQ+LPFjljpzIAAAClZBfdRpZIsPABAMAExEU3cZw/xB4AAExDXICdFBrhFSrzxFBPAAAQQ2TEZFB/+4d6hkNIyggAAEB+hPW4EblWUuLRW9AkAACADpLUlnGcf7ZEe0JA6wEAQBuskpv5rZ5s1n2GEgAAABAmq+Smij/EHgAASkT3G76J2+PXQOwBACB3eF/HFj3aJyqktL4BvNoNAABEEbW/Iyx/OR21SdHHP34Obf7m3UR1iyxnsmpENYtqrcmq1VpTa95qr4+a7+QRfP9001m2qWm3Zpqt39ZErfn2r7NM7rLdWnYnuz21Hz6Im+8u96zrzby77K7yy9ctpzNnOeV29iP4z1lFNfe35vy665x9rLn74yTo52t5+73iR38i8tLqyaBzJOzOX5+mbYe22F5xvR3y5u1ACp25nv20O4u9ex91tiNCWF5RO+UNGQLBjVZovbctGNVdsqyIQ27R2CXTI8qkltE9B2nrNcv67Zt2BYgoe2ehG86bsQL73DkkPccnuN7q1I9OXoG47Xnn+vGTtDrlca6pbn7tekk1P5lOhJ7ydIsZOlfee4a7l2WgLnWuIa/WeRVpdP8wrbjst05B2td/4Dj1XN/u5dy9vtvpNdvXdbPZvb7t9vVNbrBm5xpuX8de+ZoR17enIcH96B2k2I5vdQ9yZ5MVODeuTnlHyfKvd+eaDlzfbpiw1jiLo00abU3N0dHW/oy61627j85+UfcaWtg4TMr7OK2du/elX8fi+XR48IEH6Iwnn8aXicdo6+DoZMyYMXRw6CBZA/XEcFbsQuSKTDQPjtCs85bQ1t89kloC8YdANLr47L4ZaUke/f2X9DTq5P946+xOSxZepq5Y9LR23cavTyBav6vfc5O0fZBDdE1Irh9WT3skP32PJCOiryrYFNbi6HW96aTVqOaBEZo0fiLt3bOHocDycPRrcHCQhoaGuOKvXrs1OQDjpWTt3LWPMShX+twRbd4cmNNnZ/OmTXTsqUfToq9dQLUxjba1VK+5dy3u3Ytruod/PYus5llZ/uRvD8y7loFzx9NZV/PWBSwF/67H6rUo2qsCdxVW1xK0rICFEhAxu3PVBMUsII7+hWX33iUFlym0HLk9HLaznvrW282udRbcFhbiTtmD4hzcp5Bo6xR/m8Lhw8e1ixUM078lkqCtGWzmO1Znz7bAvBVeF6pDXri+dcE71Z75QDp+XH/O6t3SyblzrrvzbQs+sOyff9eSb3Z+m3HL7p1+u064FjJ161Mz4l62+7ddzm2/XEb/edG76eJX/EvsMQ+S3U6RY9Coyk7iUE+xgrC21rz5ZEs3HFql6QsAMBnjRZ8TgaGeYhG4LXvGfPhSj7vtBABUjcKIPme22T/gLhhQpbsoe9p24iJ/ugCYhefsAAyUXfR9EoZ6imZsotiHYkLsAQAe4X4Zhhhy8tWbXQd2nz8sfABACRHWE235yiVe/CH2AICSY3f+MIeWk6fSCGx0xT9jBio7bFW5c8TTLx+OH7gUx6MUO1F1SlMbIzFF9H0yvNJZwMJXJsaw8AEAqii2Tz8+m3ZGCT5/E8U+lIJqsbdDvwCAClAOn36YsLemEdzU/Zs5VZnB0mPqEn3Z6QIADKZcPv20LBpcvntdYq/Ldw+xB6DClFn04zPJ9noHZaKfr2Ufv7pEfp9y96UBkBtFE32fZPEvi9hny1ZFzgCAkpFJJbS5dtgzihZ/1aNzcnLnxK+uqtjjdgCALJho5bezyZ5Rw4uZkjAvplr4EDwAADtlEn2fyHH+hRmKyZadypwBACXGNNG3I+Z4aYglk4Nlr0nogy95yv7CJwBAkTFN9LtZyMso41s92cdE6h+GKZgjc6MCACgrJop+Oxv5GaUM9bQjZ2NCyCVVjCH2AAA5MOuAZsFQIfo+EeJv6ogcSTlD9EtN8c+rsweSP7uiIMmyYJN5wi/bvROTgSP+JR2RA5EHAMiigD79mAw6xL7Vs7APWEH0k8HQfgDY0Sb6CjOLSbaRsl16hsWz8DPdGAIAiozGS12lP9/LIBH+b/imZKhzKKYK7MCOYKgnABWgwCN3Qhkwke3FbgwZFdedE/K4QfBzAgceaKZiou+TXfxLJPa22gwAAKaj1advVgbp4q/Ldx9KRv4Bs2HVAwC0YZqlHyZe/FU/ZMWcD3/CEHsAgC6Uj9qRnHxX/MvkzoHYAwC0UwzR92kot/B1+e4VZoK2BAAQh+nunTgihnrKyUml9W0rblH6koX6g0JTrfc76Lpciyr6Pv2vd+BFqR7rGYZZlT4CPOQLQHaK5tNPg3ucv1q/umaxV5yPkaAFACAj5RB9Pxt28S+BZd+XPMQPAJBC0d07cdkIDPUUL0ZuHbXM+dmh3/KDGwJQdcrk3knKolf8db1CQfcxzZxfFeUPsg+qTVVE38cd6qniAavIJeN89xA7AKpOWUQ/a/KS3+pZNHcOWyg0EQCUGcNUWVMWgm/1zKmjNnN+2QoGsQfAYKReoMV+MlQkGy7xV/2QVTeftBXMMflCw/QHALCiUSdkZJUi/kXx3WeLkBiqNEJfnSc6AciNggl+kEjxN9+yT4+QmlRpRB6ACmHKdau5HCqya/Q8wmCs2LMXTLwzGAANoD4WkwL48llpqBpzn7sLBxcXGxjeD0A6JRJ9H/Fv+HrofrBKtejbMfMAAPkw2SB5XIgF9umnZcT/YrfMG/gC6qoQEHgAQB5CoFv0fTKLf+7DL/mS44gesv2bNu3546NkDTRo8lkLxTLPCgbuMHPgke009NiuzvLAvEk0tHZ3950izo/tP5/ir2s/5t5xgfb82j3zvW5SOxS2d1Nwxok3snU/TXnmkby7Vm0kK+TeZRuoPn280jziMMXQTBX/3MVe8pFiFv1AwFkzZ9PRhx9FW60arf/UH/WLP2Bm/2UP0Zbtj9Ho6HBLcG2yLMv9lQlrmtZgvWfZHhqF+BvC1p/cR/VajS76ziXtFYY+hasywz7xz72jljtf3mTsxEWfH17zM3r6Vy4mq16TUCrVVPNW4cDybbRxyyr68Fuvo29d+//R6nX30eXv/zNNnjSVJk2a1Lp5G6Xm6Cjt3rOTdu/dSfsP7KNb/3IV/eGv19LbXvFValv2tifs3rxn3dvercGPf/0pGh45SC955vvIbt0NDjYGW9OA+zum9euku33nNvryz95Js197Ulfsm0166EXX5Hl4QID65DH0ihe+opKi7xP/bh/J6qy7M4f5CQBT7sGAZHBiS0NBT6Wpou/TtfwL2lGbnlzMloJWKACA2Zgu+j6Nolr4PL57kTx6kqmmVwUAkEBRRN8nocPXrIesZPnu5eQFANBCAS7GvIZqitIovGUvIc8C1C8ASk5xHjUvRinTyT7UM3OAbDD57iH28inOtQdALuR2eSjKOFb887fwI7bkJfq2eN76QIeEQ/t04VgUmsJcc5LRtN/pn3HMw3evzXUkOyIAoCwUrQM3K/Funyr67isj+vDxABBH2UXfh2OcfzrJSUHsgQZwbkFGqiL6Pgzj/OPJPPySPaJgvnIj2t4/AED5qJro+3B+wJ0xREF991UTejiBQFXRWu8Nucj8YjCJv84HrCRE50jAlpMvMAicTWAIhlTFcDFiPuCeMRmIPTAMnFuQG4ZVvrjiNJI2xkYvnNj70Qw7KwCUjgo/W2GYvKQVJ2acv1yxF04GYg8AMBVDZCbr29gakdEKatkrc+cU6glfQdD7C0qLtvHs2uEZedn7YrfCib4CsTfspAJOcB6BbAysU9zD7Un5OH95Ee2EJR1lMPC8A6AWp9LrcuGbesdpWJlExD4cTNJQT/kJKBuPw35sACg8OvW7VBgmAFn9+SxB+N/qKaEcURGU+OvlBQMApFLg5sYwIZBi6ccEaaRs506YNaKyY52SsGHnGEgHZxhkwJDqwl4MftH3SX+ls0De0dEUHWVY+KA0wFmjBcNG8Qm7djLuC/u7fUxx4/QmLysYAABoR5ovnwMF7/OH7x6ANGDbV5tkndIjdsLv8y+/G8cO/QIA0kHTFoUJou/DMc6/Ku4ciD0AQA4mib4Pg88/XzcOZ3AOInKwkzcDc8F7nUCeSBF7zuCsJIzzr4o7J34V5AMAwIq0p285g2elUR03TkQuMZlC9AEArMh85YJO+Mf5x2HMfrKPh6222Jv6UhUAzEa6pa8Zrm/49mDUnQybKW/2KQFSwEkGkimaWycNfvE34vUJEHsATKKMAzzLJvo+6eJv5H4lq7shxxaAXMADZHIoq+j7CD/ha4IbJ2U1AEAzRWx8lPnwDRWmzE/4wp0DigFqB5BFsS38OFKf8DXBjZOyGnCAMT4AFONhLFmEixfp9sltGCYsewAKT2aXjzGWSLncOmnIH+cfCXz3WimiwxWUC2MEnYVyWfg+acUUH+fPk23BLHybzC9jEGg/AKxkuLILIgKsxZQk/uWy7PvKF6X+UFgAqoHpguWRtZic4l8+yz55BQCgchREB7iKaWcW/3J01MaWz/SCAwDUUKBrn7uooYgx4s9m2Zt8vCDwAIBUCqIHsgQ/SCMxRAF99vJcOOGIJu91APRFuBTkbAGQiArR92n0hCqY+8ZBvoVfhL0GwEBgeEhDvXzZ/U/4FkX67L4Z4ZQAKBl4xVuREFKiDKLvo+khL37KaNnjktRB/ucZpFOoZ8EUkukY8A7vCaHoIS9x1Pnuyw0aFQDMR5J+CwU0Rvzlj7Wvlui7QPkBMBoTRN8nN/GH2AMA2khy/hgsASaJvo828S+i2Nsx86AA4IQBA1Djy5dTuZWJf5E7aqurG/l2v1X3uIOyoLYOy01dmvgX0bLXnxMAoKxk1hHNln4YbvGHZQ9MBucY6EK+6OupvZnFv4hDMCEEAABZqJM8vUoVK/7qXoymt6MWVBXUgkJQoKe8yiL6Pn3iX0TLXnmOtsrE5YFh/qCIFEj/2TBU7MP0v96hAJa98pzMODcAgBwpqi8/Db8UfS92y56EPpTnaMa5UU/pTC0A5FF20ffhGO1TAsteWwYAgKJQVtGPI0H8S/ywj9nnBACgEXnD7c0UlrhSRYg/3DlADzgtKsALw1mRN47DrJrMWpoGxB6UERuVAIhSMEs/a2m0vNgNYm8+6APWD2x0Q1H3kJNRKBF/iD0AoHAUVPR5SydF/LUdGrPPQa7AggyBugJYqZjo+5FrvJkGJ2VoyyitGDZ8yAVk/NjJTOHmzDicOc0XPuNdbHmPYcsb5EifrhgiODFIKV0gcibLvwoWvp13AYAU3vDST9OHP/9cesdHn5gY7twzLqHV6+6jj3/jYua0Tzv+OfS5770+Ndwk5hRBvlTgeo/YxUjxr4LI9xbBgIIA6Xz4LdeRbTfb9212e6LAvL/+1GOf5c07m7vrKTIeufNnPOEF7btBb7n9065H1//+y/TYwCM05ZlH5rLfIAtmX/sqX8DQEMogK7keZ8h8Hxjiw4wdMw+ACnS8daf/xW6yyP0KgdgDAIqFaCduFuQN9cxdZe2EJVBdcHsDigFXLRWo2vzin/v1BLEHrKABAGaTqXZKqsrZxT/3awjuHDlURBBFdrMChwfkSx6i7xMv/rlX/OgC5F4sUFBYWgGWu0ldNbACL3+oiP0RRZ6i79Mv/rmfDFj2QBUVVhsjqd75MEH0fQS+5CUKLHvggZMOKgBzNdd0PWh5q2cv6KgFeVI9axPkD1ON01wtFYp/8p7g8gP5gQYAqMc0Sz+MRPGH2BeWqmghw36W5TAUsru4JPXQdNH3ERD/Col9qXYGJMNyslEhQD9FEX2fDOLPVmJD9ksOpdoZ0AUnFuSAYdUuQfwrKPY+pdwpADRROH9TNQmIfzbFK5U+lmpnQByJLmXUAcBJatUxtG41YOEDAEB2iir6PrFuH8PLLUapdw4AoJKii75Pn/gXpNx8lHrngDww4gdwULAqoe5jLiZQ6p0zhJKMzQYgjbJV8xxe76ABSWep7J/ug24DUF3KJf4KRB8AwECVh3cWVDDKIf6CB7+gKdBO0gAAIABJREFU504+uBUAoI+yDg8utvhzHvyCnzMAgAbKKvo+xRR/iD7ghrUWoLaACEpQLfxdKJb4ZzzwJThPQCJlrw+FfJOngZTd4vcphvhnOOglOz8AAKAEc8WfUcUh9jJATy/IC9Q9nQSPtJniz1AXUF2AblDnyk3Zz294/2q5lCIJCD+QgNX5oz1XAAqBOeJvE4QfqCVz5bEjZ0EFKcH5D5sm+bt9KvJNVQBAQSmRCAV7WPITf4g+AADkhjlunwAQfmAKqIugrOgX/xTfPi42kDc2KiEIYlGp+vL9XTHG8mfs7wVAAPNqmHkl0kOJtLSQOMdfn88/ppZXtfKDooAaCsqJevGHiwcAAIwjN7cPhB8AAPJDneUPix8AUCD8fohYfUoNUCyM6fAFoDSgNxMUAO3iX5JGEwBQUlJHdpZk6KdW8Yfwg2JStJpbtPIWlII3AvJ9/qh3IBVUEmA+zC7+gvYFwOcPQAQFu46BQgpu4MciV/wxwgcA/RT04iqjoBYJeeJf0ApYHnAp9WHHLgCTKEjVTS2mFZoMR5vbpwDHAgA20I6EEL26i6MOmXTd8EYAPn+QK9BRE8BZyEoZGgGIPwCgNOhuxorcCGj9klfwE2IAAFAWMo32DDcAOYmidsvfoIYPABADjDQ+uIz7nDqK5Vn+BX3QoVygaQV5gboXREgO4w6lZG3N7wPuQCK48EDRqIYTOHhlCu8t62XOmFEu4l+N0w5KASqqUqqkBdr2lbGRkC/+jPc78BIBlaBeARPR5NFhIvehnoaNfgIMVPN8oTkB6shDB43x+Uv1jQF1VOk+HWQkP7OgLFVS552BOvGHSIAI8qkSYrmiGoO8UfFogFrLn9Oxb8gzEACArFTTJ6idqMOcVSf1uH0Ee3fRGJSRopzFopQTVJ2sLiO9Pn9JQ3wwUigITC2dVKLOOTuJalUa4k5lPh2+kvoDTBo2BaqAwTXLGME2ohB9xJ+5pPIafL4lkN9oH4UdwmnVjzXb9evW9iyP7h7iKk92jLmSASglc/7lNNq7fi+t39C9xg+ZOz8UStU1aEajku9Qz5z8N6yn9IwnPr53CGprwarn/mgEiGFg1gSy7WbexQBZyGlU4PrP3UbXtn6vveZqd9kpworVm6MDSy+fbsMuegfMUDJDP382Z85ceu/jnkbNF3zanW5+ypvyLhJIYHT3wVb1sehDV1zQXWmGkQUY0XX5zxgYR+dOPYyuXHI+fWThU6hWS5DCsD4ZqlfxRBfcDPE3lL1799Lh46fnXQyQkauPejZ9+PPPzbsY1aEQApiM3bTpkRXL+TS9oI2DmeJvyEE8ePAALZ4wU3/GQIixtQZd5TQAX7gwl/y37FibHggYx8qVy3uWpclQWuOQk76ZKf5xaD5IIyMjdNSk2foyBNJwGoDvPe7ZdOkXnyeemB30HSX7kW698yrav2ereJ6ZgX9LlDWrVzGFU6bdmhuJYom/j4aDs3v3rtY1b9Oh46bKSRBox2kA/u9xz6L/+uILhNNikdbf3HElrX/kL3Tc+BnC+QH9PLb2UaH42gx71kYipSDFFP80JBz95csfpoZVzsNTJfwG4L+/9EKl+fz6j9+kLWv+RpctPFNpPkAdGzesV5q+MV4fL8NqqVuGo/7IyhU0piZ/JKxZN+cG90ZJxGkAvttqAD7y5RcpSf9Xf/gq7XjsXvrIoWcoSR/oYcuWTbnmr7troFriH0fE0X10zWoa3xjMsVBAJk4D4A7r+/KL+ROJaLl/+fsv0r71D9Clhz6ZP12JmGVcFIvt27bnXQQmZDUStdxvQUykdQDWrVtLUwbG5l0SIBH3DqDVAPzPV15CBw7sEU7vb8tupKGNy+mD858ooXRVxCyl2bVrZ95FkEpa41CL25T2r+xs3LiBZgxOyLsYyin/mexljNcAfPrK19D2XRszxOy1qX9886do/Io76QPzT5dbQJAbe/ftzbsIWuF2+8Q3CqonPWzduoXmjJmoLT8pVE3JORms1V0X0Je//zbasGVl5vg/uOEyGrdjI71o+mIFpQN5cfDAwbyLoBXpPn/10q2jgbFoX8sKmDIwTkqJgXk4DcB3Fj+Lvv2Tf6e/LruROd73fv5hmrlvJ73nkFMUlg7kwejoSN5F0Ir2Dl+z7Pt4LKtGTRvdZ2rJ9/gO1mqtBuB8+vUfv01X/fK/E8M+tOovdMX3/pUOHxmmt889SVMJgU6c53oK4JSQhjEfcA+TdixVy0atZtEoxL/0OA3At1sNwKuW30Af/8Y/08yp82nhIcfSlMlzaHj4AG3Y8gitWX8/0cgQvXXO4+mE8TNbdQ/1oqwI6Y7sBkBxNWt0Clyw+ix6nNN217IsvB64IjgNwLcWn0evXn4jLRlt0sPL/0D7Roep1rr7m9EYSxdPPYLOmrzAFX2j7QFJn4HA1yTiyXpchKqL4saka/nHZWRyZRcg7bg64t8s686DPpwG4JtHnkevWXGjOxrIEXnbs/EddwBqQlWQ63Pg1W8l9S1UmHSff8n8XKzUiubzL/G50IXfALzy4RvyLgowFj0DTnSMoxTv8C1hR4iDVYPlX0WcBuAbRz6TLlmOBgCYhHz51zPap4CNA0b7VBenAfh6qwH4l+XsQ0ABB4Ze+1XBjHf7yGrMJFKDz18NBTmkTgPwtSOeQa8yugGQcTALckKAdGLf7VPIRlliI+G4fWxY/pXGbwBeveKmvIsCNGHlaHDqJtHyN8gQlwtD4R23T2HG+Rt9sIuN0wB8tdUAvMbgBqAgtbQwZNI5K36S6qJXgFK3j8H7nUqtddFXYoAfGo5U2g3AufTaFb/OuyiFx+TqZllySydV/xU0KGb4/FOQ3YiyNCpTpkyh7cP7Ze8KKCgDTgOw6Fx63Uo0ACA/ZOpfIcRfFUkHZv78BbT5oPg730EKBbq5arQagC+3GoDXr7w576JUE8V1RbblbzqVFv8kFh62iHbA8gchHBfQlxY9nd7wCBqAsmHVqiWHsR9z0edgMZPFixfT3pGhvIsBDMRvAP71kd/kXZTqoOEO0Xmqv0rU9Oi5jgZGbqGPOvo4GmqOZt1R/RSzbS08fgPwRjQApaFed8TfTD1SAX9TV8j9Zi/g5z/3aXe0z7ahfXkVFhiO0wB8EXcApaFWqycO3ZQ/WT2T2rGi/VPiQ15KNbsADUe9dQKW7lrHHiH/xlyAvApfoB7fCNwG4PBWA4BOYE7MuWjq9Xqu+fdJneLGJ7PlL7v9kXOU1GQ6aNVpWaaPfIMq0m4AnkZvqHgDYI6M89Fo5Cv+usm9h0P9zQ1/puNqDVq+d4vkPQZlxGkAvuA2ADk/B1DsG6lcqeVs+esmd/HXAW+jMak+QKv3bcujyGwU3dQqGX4D8Pe9m/IuitGg2ppBJcSfl6n1MbTuwK68i6EHXJFScBqAzx9+Nh18ZEfeRdEKqk/xMPYD7iZwxqR59KWNS8n6ybs666wG2kuQzJhag7646Gn0lpdcQ0uueUnexTEQp6kwzz/ld7JyI7hLuo8IxD+Bhw5sp1kD4+i/Fj7ZXX5w/3b67KZ7ci4VKAINq0b2SJOaQ02qDco3GPCRdQMRPCG6z2cjrqVLbYXMa7iVMbE26P6OtdBWAmAeFRIjicSqWWorpLiZKsqr9AGoOlxSYKTnR2gAukLUHKiG/J2VU1BlL9gzrsJxYmIdBQAoQM3FrsCPYbgqdYpXllYAAEMw/NJnwd+FKqhDhZ3YJaipAORM6a4iq+cnOwVqNSos/gCAvDDS5S+DArWGPS92AwBUm1IKMoikEWyCTWoAUAkBAEAdbbePSarvob1IaG0AyISBsgEyAJ+/T7gmo2YDUDkK+xF3jgejIP4AAH5M0ErctXM9GNWwAmdP3zHE2ZKNCdcgqA6ob8Wnx/LXd0LV5CS3SUH1VgWafoPAG+IqSyOXE6/o6pe5K7geAKgeVbru8/H5m3aEYYoCABxM06YgknUKHb4OJp9wAJgplg+ntE/5qkLyqcVnqQAAoII0imMn9AOrAQAgEyvBvC6b3hTa7VPkhgsAUCzKpjf5jPZxKGAzOr7WoPrkMXkXAxQR7yGc5oERqo0ttM0lCUM9/iYrvOTDVeu+01PzZGWdNBcxgkVjp9DotgN0cPVOvqOtCJPrK2iz65bVZNVrtPqdN9COG5bnXRyPnMQXFZYPyRpXoA5fA9S/xZyB8bT9Jw/I3jlQcnbfvoYGpo2lQ/75CbSzJf7rP3l73kUCFaemW1Lzk205nDpxDu39+wbFuYCycWD5NhqzYIo7P+fFx5O9f4RWv+sG1w0EzCFv7dI5FcjyZ0dlI/KC6YtpZNt+lcUvHQZ6drUzuusgTTxqVmd5+tOOpEmPP8RtAHbcaIobCFSJUoq/SgZrNZpYH6StP7w/76KAgrDj+ofJGqgTNXovt/GLZ7huIKcPYF0l3ECq78slkLc5rnGq5V2A3CcOjhk3jXb/bjVfZFA59vzpMRqYNi52u+8GWtW6CwB5k7cg6Ztiff6VgaNhuHD6EcaN+BGhUuc7Bw48sp3GHjolMYzvBlr55l/Q3r+u11QyECZ/SdY3xbp98i5Y3lMSh4+ZQhOsBm370bKUkAAQNfcO04SjZ6WG891Am779d9r8vaUaSgaqTH7j/JXKs3pOnzCHdvwSHXUgndpgPVP4uS8/kfYt3UhrP/p7RSUCoNAdvvk2Lq+aczwNrd8tc4e4yL8ZBGkMzBifOc7sC49xz+2qd6MfQCt527Qap+p1+ErCaTVnDYyjDZ/9i7xEQSkZt3AqV7xpZy2iicfMppVv+TkdWLldcqlAFHnLk86psA95cSMxg6dNWYhRPyCRvT99kMYtnsEd3+krmH3hsbTuU7fTtuuinizHUxSAj8K6fUxoXC6Ytojs3UN0YDmsMqCO+sRBOuTix9PO362idZ/5U2QYNAGyyNus1TcVVvxN4XHjptGmL90Vux0XJZDFnBceR6M7DtCaD/8276KAElDL/HLNDJMBjRu/Wc/I6+ccT3uX4l0/QA8znrGYGq07gUfe/au8i1JKVOqhaZPSoZ7G/rPYJhZmD4ynWY1xtOEzf5ZWAQFIYuqTF9KEo2bRin/7Rd5FAQUGbh8JOC9723nTyryLASrExGNn07SzF9HyN19HB9eU52lzoA+IvwSeOnk+DQ4R7fjlw3kXBVSIMXMn0SEvO5Ee/djvaNcfVuVdnHKg3O3M5pNh9U6ITBB/STgNwOYr9T6SL7n7AhSRRs0dCbT5mntp8w/vzbs0hUe901l7t2QsSjt8izxl5ZJZx9DIxj009ChuwYF+5r70RNp952O07YaH8i5KMlbsAtAMLH+JnDBhJq396B/yLgaoKLOffywdXLmV1nz8d3kXBRQAiL9E3jPvVNp//2ZqDuHTfCAfnNdC2wdHafV//yZzXPZnUmCxq0RXN0OB3+qpeuLjmPHTafW7f80dHwBRpp9zBNUGarTyP2/KuyjFQrNrOdblrEnK5Pv8FZTdDFln4/3zT6V9d+OhL9DmP/44g6xrltOOPz+qNd+pZx7ufj1sxfuv15ovKA7y3T55KzvDxNqI8VBr/XNe+bDqnTdypgDKxofmP4kmrdlPm38R9WI2dUw5fQGNXTCFHv5/P9eab7ExQKA0TfD5K+D/zTuF9t65Lu9iAIP4yKFn0MmjU2nDD5YSNZva8p30hENowjGz6aG3/VRbnsmovvcuLrrlH+KvgPG1Bh0xdgqtfk8JfP+4VqXxutkn0GunH0vrr15K+5Zv1Zav81royafMpwfe+hNteRaVUvn6U6bCvs8/PJnG++efRvvu3cQcPuvbP03cZ5DO6RMPoa8e8Qw6eOd62v77R7TlO+6I6TTtqYvo4fcKvg/I6psBBaU0X/IyrTEZ17L+F42Mo1XvwGf4QD9XLHoazd5k06afLtOW55h5k1p3APPoH2/+kfzEGS6a3JoLvFc9kvIM9TThMd8QH1rwJNpzx1pqDunz8YLi8J+t+nFWYw5t+L6+14KMmTeZpj99MS178zXa8gTJ5KWa8Pkr5uQJs2nlG67LuxjAUC6eeQy9cdaJtP57d9PI9v1a8hycPYGmnXUE3a/iDqDAKBfcOBszp8lYn39ZeOe8k+nAA1vpwPJteRdFHmU6QQZwyoQ5dPmic2jL9Q/Rvoe3aMnTcQFNfcphdN9b0AD0UKYe3ZTJWMs/70Mjk7OnLKBV7y3ByB+gjEn1Qfr6kvNo6K4NtPMOPQ+EjT10Ck150qF031t5XUCwAopMaTp8TVb/18w+jux1e2jnrfpGd4Bi8oUjn0kTV++nrb9eriW/cYdNdYeB3vtv6APQRd7S5k/GWv5l48LpR9BjH70t72KAAvCxRefQkXvGahsJ5AwDnfT4uXQfGoCi2ZVCSPP5g2SeP30xLTkwnvb8FU/+gnTed+iT6OzBebTxGj0faBm/ZCZNPfMwWv7Jm9kjSb7wjdCRvM1xjZO0oZ7l+yefZ09bRCvfKv6iLSMuEqCcS+acQBdNO1rbUNDBORPJtpp0//vwJHAVgNtHI0+YMIsOrY2nR95r1qt2r1/wYbr+kA/iOwQGct70I+nNc0+h9VffoyU/x/9fm9CgBy5lfRJYnymyY9lauufScjRMBhj+6PCNnRTxPwufQjt/s5KaB8wS2qNe9zS6afH/5F0MEMGTpsyn/1h4pvssgA6mnbWIRvYP0UOXZ3ABsWCJXVprfnonNSYN0tpfqjsO+vwK+U/GjvPPe1LJmZPm0wMXy+xcEy+xNVCnQ84+jn5z4icklAfI5ugJM+nTjzvPbQCa+9UbDjPOW0L71mylR751u/K8sjDmkMm07S6Fo+byFh6NE9w+OfCvc08ge/Vu2na9WR/bnvf042n83Gn0x/O/mndRQARzBifQlSe8gDZeex8Nb92nPL9ZFx7TEtpVtPY6RZY2h81iDdapPmkMPfqju+SXxyB06L+Zbp8K8C+zj6U1//27vIvRx+JXPJWGN++je97647yLAiJotC7Zq098CW278WEt+c150fG07pdLacufV2rJj4UZTzuCdt73mJK085Y+nRJo5ovd8nyptuinvBg5a/J8mjUyQKsvvUVtRhwc945n0+abHqJVX/1T3kUBMVzVagA2XnUPDW3ZqzyvuS87kVZ87fe0d1XcNwj0Wmy18YM0OHMCrf4e6qcIlfb5581lhz2Ftv1KjwWXlSd88EX00Ed/Q9v+uEpeoni1rlSufvzLaPuNy7W8EO6Qix9P933kOrJHzHhD7bR/WkR7lrN/L4OZvEVJ6pRs4Fba5593wzBo1elJjVl0/wuu0pRjFPF7e8pHXkZ3XfRdGtk3pLE8IAvfP/ki94VwI7vVn6PpTzuS7njjd5Tnw0JtbMP9QP1jP7xTcsq5KzbTJGNMUaXF3wTeNPdEsh/ZRZuvuY8pvO47FscFdOsJGAFkMj885WLafN0y5aOAnIfAJh47m+58+/cEU+KoxRFRnLeS7n5wg2BZ+rMpwiQDMzt88zgSOfKueSfT6v+5Ne9iRDJuzhQ6/EVPpFuO/7jUdOEBksuPTn2lOwpI9YeDJp44l+qTBuie/8r/g/CNKWPdcf/rf6bn+YeykavPXxpGFy6dY8ZNp6MGptI/Xs0zwkZ9YWecvIhmnbqY/nDGFcrzAvxce9oltPGapUSK3fLTzj6CDmzdRQ9//dbAWvZ6KLPGTnniQtp131qJKRaYjBqXq9sn7xsGg/SfPrDgdNp751ra9Rc1Q9hEWfCsJ9C4mVPozgu/mXdRQALXtBqA9Vert4RnPfcY2nTHClp/i75vEEfhfJWsNm6ANt14v5wE8xYdjYKlcagnSOOVs46hB99i7icfnWcARncO09I34utPptKo1eijxz2H1l+l/l1Ac196Ai3/zm10YPMu5Xkl4byPaOff1khJK2/91jlptPzz3lXzG6ynT1lIc4cG6eH3/Ep73qwc+9bzaNdd62j5//4276KAGI6ZNIfefPgZtOEH6t8GOuuCo+nO916tPJ+kq9H5IpnzepKtt5r1xLy5tPWtHB2++nVaGf972Jm05ecP5F2MRE58//No7VV/p/XX6HnVMMjOM+ccRc+bfSxt+okkd0gMTqfrpJPn0e1v+kZKSLUX6aQT59KOv6ySkFLeQqZPLMvzkJcld8qzQXn+9CPpzqd8Ob8CMHDyh19CD334Jtp++6q8iwJi+JeFp9PpY+fTlusfVJrPhKNnUWP6OLrrg/l9CWz84hlkN5u05/71uZVBG5JEE+P8DeRFM5bQ9J02PfzvN+ZdlESch8CWvv5HtH/NjryLAmJ4z+POoUXDk2jbb1cozcd54nb/5p204qr83gI6duFU2vZ7wSfmJYiqjjfPyJgg/obyycPPok3X3EtD63cnhBK4PZF0Z3PqZS+nO5/1dTmJASU4HcBTtxHtvONRpfnMfsFx9OhNS2nXyo1K84lj6pMX0vDWvULfypAhqkUB4m8wL5t5FP31gm/nXYxUjn/3BXTbCZ/Ouxgggc8/4UVUW7WH9ixT8D6cADPPW0J/++9rleaRxMD08bTpumBfFB4njKOW6PNWOYFUnjNtEc3d36B/vO1neRclkbEzJtGSV59Nt5/82byLAhL45ikX0Z6/r6eRXQeU5TEwYzyNP2om3f7O7yjLI4nJp8yj/Ss255J30Ygd56/8nw7fmKBfzQQ+etiZtPUXD9LeB9RabKI8/M1b6BNHPZ3+/OQvRG6H/WUGHzvhubT5F2pHk00+eT41aZTu/dz1sWFUXV+Dsye6wz53/EFtH4dRMBrcYY3L0e2j4/aiHLcmr5p9LP39xf+XdzFSec6cx9E75p1Kdz4NXwIzlcPGT6OL5p9MG3/E9iJBXmY+6yjasnQ1rfud/ieAJzxuJu26i++hr3yNTotvYvwX1jj4/AvAOVMOpcNGx9HS17IMpcu34XrvkjPp5ROX0N8u/Hau5QDxPG/eCfSEcXNpy6/UPhTlfATmH9+KeRhQYTV1Xj43um+YDj6WdRRatQxOiH9BuPTQJ9OO366g7X9a3b/RrBsV+uTx59MzRubSPS/P8zsFIIl3LzmHpu+tKx8BNOX0Q+nWN+q/ExwzZyJt/62ZH0oyhcwPeYH8eM+8U+nuV34/72Iw8fWTnkdP2TmF7rvkh3kXBcTwieOfSyMrd9D+VduU5TF+yQyqTx6kv31c7yugJ54wlw6uxfMnSWR+vUPuHbGaJhM5bvwMOm3MLLrjvK+RaFOsYxe/e+qL6KRNY2nZ6/Mb+geS+crjX0w7bl9DTYWfZ5zxjMW04+F1tP52fa8tcd72SXWLdv/dzLfkyoZZwgMaB7dPwfi3Q55AtYd20MpP/y7vojDxw9NfRkevtujBt5r7ttKq88oFJ9OmaxV3AD/7KFr2Db0vAxw7bzLtujObW4tVOE2beFw3EP8C8oUjnkYrL/+90JOMOrnuSf9Mhz84TA+9O37oH8iPs6YfQce07ii33qjOR96YNMZ9/84f3/ddZXmEmXTSPBrevCdbJEbhLAO17J/9LeJUPl4+8yj6/amXc+1eHkfkV2e8kubes5dW/MdNOeQO0vi3w8+gge3DtOd+da9mmHL6Ahraf4Ae/D/nrpWhFgpW1PqEQfdD7ztvWymWUKno6mKk5Z+3VMufsv8zvdFwnv499MAg/f0SnhE1+ezbb898FU378zZa9ZFbcskfJPOxo86n3Xevp+bQqLI8Zj/vWHrs1vto38adyvII4rzsbc9SHZ95zF/l2JSuG7o87/NXMRmOO/zzNyto4y/ZH6TJe7d+f9braNwtG2jNp27LuSQgiovmnqj8GwBTn7SQ/nLpDxhD99ZYu/Vv44/Z+yemnLaARnYeYP6uMf87C/KXq8hrOyEwfP4F51OH/xP94z+yfPkrb/kn+vPZr6fTbh+hxz73p7yLAkI8ceqhdPSYGbT1BnUPgI07Yjo1po7hGv7piP+4xdNp/ffuZn5JXX3iIG274R+Z83LJW80VGrAQ/4IzrTGGzjownX532mfSA7tDA9SXiYWvnnQh1a5bRY9+Jr/3v4NoXj//FBrcMUJ77t2gLI/p5y6mnSs20Ka/pryDJ1RfL3hsCo0s20ozX3oc7b1/I21haKTGzJtM+1duYStYwe7+RYD4l4BLZh1D0zeN0D1vSvqwutWty4ZU6jv+6fU05vrHaM0n4QIyjQ8uOot2L1Un/g7Tnno4/eMbv8kc7+tHPoMWXb+FBhdOcTt0N3z/Hhreui82/MRjZ9OowjeZFpWGIToglSq+QdL59u9rfnoTbbrwBJrz7KO50lhz3V8llyqdPzz1tXTWzd+k1cO/o4XvO0t7/iCaWuvf2VMPo9uuvZ9mv/A4JXmMmT/Z/fzj3Z++jh7/jgsiQjjqFH01v+2Qk+iWnY/St/c+RJPOWEhbbnyYxi2a5n7QJYwz6seq12jP3Wtp4hPmy92JAtPIuwAqkNGgFbFR/FirAXjXa66mZ2+4NHPcwVZV2PmA2KiIRo3vRvLWp7yKnv77K2n1yK102L//k1AZgDyeM30JLV2ziXb+5TF3mKYKnKd/N1x9D227bw1NP+7QxLC27Ty0270ynRcenjhhFn3ijrto9KQ5dGD5drez2vmiWJjBGeNp770btIu/yTrSMLp0IBOzBsbThdOOoBtP+Dg9/d739WxLOs32aJPmHbmI5n1gEVe+ezZuoz9+8gc0sT7IFd/h109+JZ3/p/+jVZfeQod98BzudIBc3r/gyfTeh39Lk06c67pYVDDljMPo/q/eTE/97KsTw9kjozStPqZn3YzGWPeu96pHHqCbJwzQwJRxbmew80I5571CPk4n8867usbNgWb0A5KllsPQzsHnXzJeMmMJzd9Vp7tewfb+/zVX3kn1MQN0YPc+b9rbmfb7067kadUf7qU5YyYIl/360y+mOXftolUfzO4HBuo4v2VQqPwAzLjDplJjyhha+vnuqLU4ET554uzI9RfPPJreWTua9j+whaa/4Bja9ffJuc9cAAAgAElEQVR1tPXXy7t5tMTfaTxGtrX7BhpWXVzo8x7JIzjyJ/ZLXpiKizP+f9dvltOjV//NXY7dm9aGVd+8gyYsmEEb1q71pnWdaaM/rUuedm7cQh866mwpZf/ZaS+jeffspUc+cDNzHLuSvTz6OHvyQprVHEM7/rBKWR4zzltC2x9YSzsfXh+x1aK9j22jw+sTabAl2nGcMH4mXbnkPDr0pi009oipbv3e8IOlNLJ7yN3u+P53/aX9kRfH6g26kLxsDJMItRpXSp8/ILpi0Tn0+rf/hA696JTYMPvWbKd9j26nmecfT9u3b+XKZ3jbXlqytUbPXXwUb1H7+PHJL6GX/v3H9Mj7b6JFH32mJ+2ewDs/tu36f9t/gA7eMfcU+vfVt9HIcftpzwNqvpE79YmH0n1fupGe/MlLetY7UrXq2r/QCY1xTOm8e94pdNO21XTVwZU08dR5tPnny2j8kpnukM8DK5x6blOzNTUiHR/FNvyykPl9/kWZqs7YWoO+u+R8+tWCD9OBjbv7th/ctIduO+cLNOWsxTQyNMQ9bbvlQbrutJdLL//3n/ACOuKhUVr53hukpw34eNXM42jzDQ/R0Oa9Sqbd920k27Jp6WedFwB2r+IDW/fQhC0H3TfasvLMqYfR/047ncb+dSvNvOh4Orh2F004ZjaN7Nzvbh+xmzShPiD7EBWK0lr+aADavGPmifTpEz5GUx4/n6aeNN+1ljffutxtEKacvZisMXzdPttveJCOHZhKfzrnLZJL3OXKEy+kV9/7c3rgHdfTkZc/K9G5s+M3K2net1cpKwsgOmrsdPrfeWfS+9feRoPzJ9PE09WMnNnxq4fpb5ddS1OWzHWFf8cDa11DJitzByfQpw//J/r2L5fRbdPG0p77N7hDPvfes46Gmk2a3hiroPRdTNeg0oo/aHPShNnuhfPp5X+jx5bdS1uHD9CSsVNp9sAcsm7f7X0A2qmoFrX/e8tWYNkL89c9G2nvyBDNHTORXjjzePrAkqdSraa2in/j+AvoLctuoDteeDUteO9TaVKE4Oxbtpk2fuOvNK8+IyIFIJsxVoPGrT9Ie3/6EM0aGEfzBibKzaA+k2YMj6W7/rKGZtQH6VOLnyGU3KtmH0sn7t1EV6y4m8YsmUZ7lq6nwVrN7SMIUjWvAYZ6xlGy4/KueSe7v29e+Vt60qRD6J9nHEV1q0aNlrDXWr8197c7X29dHDV/aq3rWa61w+niimOeST/YsIwuv/R3NP7MBWQ1ajR4yCQa3rKP9i7dQKMb99IvT3gx/ccqPCmsA+fMP3va4fSsaYuU5uOM4JHFyS0j6GtHnkvrDuylD++7m/Y1R2hi0d0+ghoFyx8UgpfMOYZePPto+vX6R+hrj91NO0fW0/jWxfvUSXPpHY8/lZro/AUpNFoGy8Ixk+iF+xbQBYsTGq6SGX5xQPxBoXj69MPonGkLqdm0XcFv2k0IP8jEBUl3LBURfofYd/vgcgIAgPISa/lXqAGMpOr7DwAwA1VaBLcPAAB4VMnoa1Rnd+HIAgCUDX79rpDlX5VGDgDAT3V0AuP8AQCg6HDoeIUsfwAAYKQCRnGpPuMIrz4AQIgyCWIKpbL8K3TeAAAGUiQNKpX4AwCACEUSb1HwGUcAAKggEH8AAKggEH8AAKggZo/zx/AdAABQgtkdviY3TAAAEKZAmmW2+AMAgE4KJN6iGPmQF7w9AACgFoVv9eSXcBMbJAAAYKEo+qXQ7VOUQxBH0csPAMiK2FVfLM2Azx8AADoUS8BFwDh/AACoIBB/AACoIBB/AACoIBB/AACoIBB/AACoIBB/AACoIGa/2C1PcFwAADIwVEuYX++AVy4AAEqPoUKtAuaHvCp0TFyqtr8AgGIgS5vwhC8AAHhUyehDhy8AAFQQiD8AAFQQiD8AAFQQiD8AAFQQiD8AAFQQiD8AAFQQhZ9xLDJ4pA0AUG4wzj8SNIgAVJPqXPtw+wAAQAWB+AMAQAWB+AMAQAWB+AMAQAWB+AMAQAXBx1wAAICFkmkl88dcAACg9FRIEDHOHwAAEihrewDxBwAAj7IKfRTo8AUAgAoC8QcAgAoC8QcAgAoC8QcAgAoC8QcAgApSutE+w8PD7hTHwMBAz/bwss8nPvEJeuE1v3Ln94yMyC9oBHXLolE7+VsCLGHSws1vTKRdI0NUa4WpWy0LwKq58+2pPV+vtX79qbXOWR6sN6jZbIWvtcNZ7vbuvOXNN2p1cr6JYJP3ZQTbX/JpLbUWm3azlZ7t/rZi09DoSM+60VZmTbs97/zagfl2mMByaxr1stgzMtzO2+5+maG9bPu5d7Y7+2/76+xO6WjEy68TN7SdAun6f3r3sM3+5ihZrbJa7jASq3NumoGwFjnHu73Oco5Ea3t3al2krWPrbuuZd7Z5x92bd86bs9yoNVrHotlT7mbnfHSPvbN/o63yjYy2pmb7eB9szTebztTa7k+tsFbneNg0e2ACtc6UtutCBcHrY3p9nPv74IMPpuqHT5SGBH/Hjx+vpuASsZrOVVRQbrvtNrr66qtp7dq19Nhjj9Gjjz5KO7duo+FWZR1oXQzOb5jw+rhwecBSFtbyqtgvlcfKpPOgmqz7iuMuH1Z94E1rwoQJdOihh9KCBQvc33PPPZcuuugioTLLpnDi7wj85z//eVf0F+0iunjm0fTGuSd5W63AT3jErhUxmzSq10pcTI+fMVxiEF2jj4s+ytmEqsxYBuaiiu5TRPzUJLPmaScuZkvXjpzlTocrDTtmc3il3XN32VnXt82mV664kX6w9SG3AXjpS19Kz3ve81LKr55Cif9HPvIR+tpHPkFrTn5d+x6YvKlH7K0YcbdCq6KETnYDwSKmLI1MxjS5ysGKaEMmga6vRW0mmbPIECHTPrAKuMz0Mgp1bJQUkeWKGyfsaWVOOqdhCSeiGLep3Zd/wMUZcCl23IvkuCX9X5suWvErGnPOSfStb32LJk+enFJmdRRC/G+99VZ6wxveQA/OeI7rU3aJFX8i+Q1AXNi4dBPSjFzNIqhpYax40U8rF+t+ZilvZLCkeBzVMOvFb/fNJESLEkgecclogbLkEZleQrzYNGPWxx0nlvhC1jqx73/kasaGpmcxuq/GP5d2ZKhu34kdiOX3KwXjNAPrfPF31jl9MouXfpsuu/xT9Na3vjWh3OowXvwd4b/0ea+k3xzzonaHVqToR4k9gwtIdiOQKNAMQhvexhrWitrnUCD/OISPR9TxCa6L2qfY/YxqgFjiZaRPINKsdJsCvbW96/tmg+Hs/vWxZfDWRYpXuHyhPHpWszQ6CY1MzyxLWWLCMjUALI1oSpyYIEFRZU4vy91D4JgG5+y+IEGrvhui17L3tnjlDlr8fji/EXB+m51GwBlY0KTPnj2ZLr/8coZ9lYvR4u8I/4dawn/T0c9vjzjxhN/9Z7Xnki3/CNFPE/w0oWcSvgQr3E+jR2Aj8gqGsawYEQ5ttyLChuPVatFh40Q+Ke2oPMKNTOR5EMG/wuzQvLctInhH/KOmuPDkpet05LWHx3Tz7MsqsK4vj1DnYThPO5hXYJ/S8gmWMSrdvvAM6/pWJUlwVDpRq+Llpb+tS8ypd02M5oct9N4o8ceoW42i7gR6hT2YZ9CqtzvphNZ5ou9b/s46R/hHbW9qLX31adO1NwBGi/9ZUxbQL496HjWcYWzUHopoub9t4a/1iUucmCaJfprgx2xPsq6jyhC0zoPCGCW+/t2Nv71HeMMNh0XtA5IwBeNEhQ03CMFysEzh/Wf6jSHJou2sCgtmwryfRlDAk6ZO+EA6fgNgh9Np9uaTmG54Xahsdtx8sEGgmPmE3/Cx7FsVI4gx4tqzJiVMpLD0RU1qYIK72h8u3MhEHqKwWAfDxoSzvfyi4vhiHgwbtPCDYZuddb3DbdsNQFv429Z/+w7gu+fOos985jMxR0I+Ro7zX79+PZ18+BK698RXuAfKGVPsWP223RZ82xV+2/1t60ivsFq2s2x31/VUk1Cj4G2z4sJawRribe8EC4R3RNCvUeF5b9a/Uemk24lv9YbtCGtw3hfx0PooS94KrauFw9biG4xgepFpp03d89DXsEX+RghSLGFRtnvX9c0Hlpu+gIeEPHZqtq/eZlT4wLpmxPpwI0NJ+fYGa1eFwDHpqZLdgL5AdStXzG+wEQim0zcbreR9Et4XLKZpsHvXhENFLocaon6hD+UYEu/w3ves9atCXHjb7tluB7fb3fCBo9/n+gk3AnFun67vP9gANOmWr19FXzrqKHrTm95EOjDS8j/vvPPom1sWuuNnHdF3BN//tTp3ABRy/xB15jrGZaBR8Oc6s4F1ftwei7TXorWCy1F3A1YgTtR859eKEcEIsQ8KMEVsC253fuPEuuYLvj/58YKNQC0ifDBeRKMSbFjiyh+1r8Hj4xJWlIQqGSXQUS6ToAXd9MP6UzBuQmPQDMSxw/HiGoNmz68d2Xj0TrY/UWA+2HCF98e3PEO/lPLb+dvXFkQc7wQhDqlu5NmyIwJENwB2OFhEFnGdsv3iHk63V+ADwh2KH9weTqdzGqhf2HvXEYVdPs3AcmfED3XdP23xb7q/zrMCFz58HW3dvVPLQ2LGWf5XXXUVjbtrBY0edqhn3bffQeH8OjZ/jf7/9q4u5rbiLL+z9sf/gcNPSkmKoqSGFIkxJlJJIMQLQhQTQi0njRdKNfSqTUgMN6YUTUwwXqi90puaaA1YgiBXFQMES2ia+lMRCk3QG1IRUODAOXAOPWevca9Z88487zsza+/v92y63+fL/tb8r1mzZp73Z629B4h/+PPMJ4nCQ2EkeSECfCxXy/cxrond52AqndI4jgKhFDqU1H4n48FKwA47Er+6MRCLIFMPTTjZLFetae2a+GufQqio8lrIiDpEJelrQQDjJQe5QkAtxqgQtiBYDnObHjR4Tf5LhMH4dG68t72LZYe+9zmfj4wu1hFHpoY+96n2qQmEKBSkuwi+fZyOnC6PpI84pFxWxdu3RdO1jJRvxJTw6hyNuy7PVUyFujDw0OFJQVAVArHdCqGPdeRbPB7a4bq9SpOav7QCWPNHC2DQ/h+8+lforrvuoocffrgYu73G2mn+hw4dou/9zJ0LrX+h7VP82QHQ9jvQ9pMQEPERnM5hgjyRhgq6FhSusCmyEo//RSOa3CqkpzXlwp2jtXClnaO2rrX4qXD1w+00hEEtrC2CKfcQXnMtL8CrYIUSxMrVJK3jUjh4JH0hBKYEgdL4CytApXNaPL+vWAHoevLKiuCfr9Daf/OThsWvfoShLeN5nGsUXjUOygYaZD4hFMT5aqUV6VfO0yL4WKNoxxftSG1f/6wHpntVp0X2HupIX38UAIL8x1c/5zQKgD/8n+/Sn/z9g3TLLbfQfmKtNP/HH3+crt+6NAzAQPODORRcPgTEL8IDMuk7kmQt9W8dr6eVgkLGHWj4qYxX5O9UmgeiqxE+hLOQUURZcbu4WDccE9G33TUuntsJIm98CMrWrAdN/lkqlsJtkvxrrNEWBmkBskasH75yGFwzPvyODQF5togfSLrv02LuPZarCZDcVtbUI4nUXEHahSRIt0b2JOJ9sh7yGLVJn8Zz4vDCmHvZyDQR69ui2izSGgJhlfrqtlcJXoZRIMo6ojwIQk3iHMv3oSIAKM+9XC+TfY95IAyyzz8LAtT8B7D//3c//gvhFwz2m/zXSvMfvvp87/e74OvnN3ySr98R+PxLzZ8I0zhGQlOvkr/iZSzpRGElFJCoNbTWn9pyZbnCIqiULdwxSPyxDgqSCkE7LuvGso44XHkWAM8ZHPZLC6LiWYAYnHr/Bfn75gLPQUVbkfiShuVluKX990imlEk0aeiK+BORR/LXWnlRPgmMso8oCLwQTrEe8VB4cd2JzLzsL7efx4QUSvdPTXMvx1Xdh0ad1ci86JEo2Cqv01ukj3EP/3yRF+uKaQXlKu4cTJdWgtToswCAdJ5bqg1B/j6+66/IfwD/2NyXXn+WTpw40RilvcHakP/wK4Jnb51F3/7ZI/FBbxc0/k6Rf3b7SAFAKo1UeooTxkmQrOArFBEFxzvBcxhwsphMcaqcIEshJSC/IkAC2VIi/uSecloYZIHBrjEWHPxluSQQhj/twmHhyJYGVcJI/sU1VcJoFShogqhEhNsjE3Ks3RAEWmtGEi+EArzhk8qQbAPLj4p7tgjSuVNfuW8sCHLfs5CCq1ck1hIEWqPVzFiQbYP9m6lt7l+xjZ3nqTuuxkLm+0pJkeZlmoeS2goofsVVpMHcgvKlAMgPdvHtHiZ8T9nV0/sc19f0tf97kb7yN39Bd9xxR2OUdo+1cfs8/fTT9PMXfCz9Ol54CELs8lmQvgft31f8/iRJPpGh57ScF7PGI7hkMldlAYPILhlf1ikiqSnZgqtM+VAGZjYTdQyLh9QhPPqMWbgJ8k8aPQgBym2yUEDLIbmDFGEn4m+G4xE0n3w9ShhoSyahZBlfJhCRWoxA/DULoLpwG5q/JPPcFqVyeI4lQiFdkhICY0CG8cg9lcwFxFfXfmsSwC8pqMl0O5iq4uRkV3Xqea0285Vk6xy9p7pOKRDiWDokfr4f8f44knPXSaGQiV4KBeHaERZCvr9pbhBr/DlNPPyN8R5GaDj+5mWfoqeeemozyH/4tc7Lts6lD/08DMZA9sHl40H795S+6DW+5QPkL+JETNUYJmKudJCGUzOT4UDS6TfVlaZaPvzNLaRYrOudqCEmcJ7YObHQXhzWxXJMbpFkuC+Ov/3gYTH69NJQEo1pvOJYMDnGHrCVkAQRhNOi8WoBCE0cLws1/5whrhRWryb/bJq3yR7LSW0vL2hsuab1a2GA3RICBBZ6r8YBCVwLKvLltYirbhG/prpwgxpkqpi9StYNBmddI0DNy8myPI+9tCSbfVzeldhslxWWEC/XiWyjsY68mgt4/0IyKi9ZS8/pSNbsBnRJgLAR58chSFadfMMnny9bYZn4c1peK8PP1O8n1or8Lx3If9hIYsFEYUMRJn6fff2dd5nkvUtkLi2A7OARAkBYCzhlNOlzGsEHJiG3WfHRM6F61qYdEh3Bwkg10wE1Nl/8lwJIa5KoUQqudXICh3QYQ+JJjFpp6msWTnlhKAJO587p5OWC0W2Ka5CsT4KgkUir7fuiDA+BJ9UWkDmWy21rMufzqLbjP33+9PwAS1fGg1Q7opc6XoNkXVArJqqkk7FaUEe+Na5diFDDBwsy9SYrFmmeTQgSfZpkmRIfcxqfwav62O9y3cARLEG8z72a+zotlespk7Xjb/DyHGfBD2HMAWGQb/SY10upn9bpwIn7ibUh/0HK/eDkO/TlH34bplImSpw6rvgPea6Vh0RdauxyfjrkqIKspXYkz5RKuCKr0eNp+CLmihwvopK0lrWWwr7Mz+U0Oal00UZRq+T3FfukT/pzhy6n54+/2SixpJ1mH+qxsu++KFOeopFTO/cEuR44XGVWrqC1T62Hsj1RoNJKrOfqOVJPmu7bsqHVglwrHJyJdxwtR/lwHBaFaKveznY6/NPXXb/kSnaHtSH/o0eP0gfzU8p1A1o7lK0SdyVQCoZy0qDWLptQE1jHK0KpXq7SkUoGFqmRWQ01vhYEpMg6xQrh4Iu2dDu1CexVgekeazdHo28YU+XfPXWSjp/+Udm/yTa3X6Y2hqu3vRqr7zf3N2Z6HUs7Iy3U5S3WFKqyxpRF0M6rd6JUidooLDAIZWsw/vdaWFRWZ8tFl9paNolkAo/ee++9t+RKdoe1If8Bf3DlL6XXPPFNn/zGjxu/wErowoHwVFry31MO8/MDeAOmw7zWh2Q8PyDGNFLPC8BE1tJKzef65CThuiBlkibNRLhlMA3Ko5tG+bCny1C9LOQRnDu5fIr6sKDQ34r+cBiHMh+vD9vCmBonLKkWdM3Fk8IV3z+lNurn0/dNxlcRlNvFBNVXrNMccyJfFsW4E0pStsZdkY8++uzCYcVL5tXSchu5PYJ1VLpMUdCA20fcTz7mOYcP6/ENsB7S8v7QcOx5P+k+r4MYz27YeP7o+x/jIEhQ04rhUrl19OV/+Q7tJ7rlRQwGg8Hw4wYjf4PBYNhAGPkbDAbDBsLI32AwGDYQRv4Gg8GwgTDyNxgMhg2Ekb/BYDBsIIz8DQaDYQNh5G8wGAwbCCN/g8Fg2EAY+RsMBsMGwsjfYDAYNhBG/gaDwbCBMPI3GAyGDYSRv8FgMGwgXN/3+72vxErY2toi34+bt184O5uOzX+0Qq32dhKHt86md0+v0kYJTx5/zbyKi886l46eOrmj9g8S69rPixb3573i/uz9VBxa3N7eaSMOLebg8ZXmYMYFs7Po/fmpHZxt/7Eefct34tDi/h/f4frcb5R92/28PL87iz7otzf+w1n7yIn7gbXZzOWll16iR2/5bZotjJGLF4N/Yj7PG6vQaKJ0sNFDR7gxS5f32aVxw4fDQYCcyhu1wKYRXddBnbyxxFY3I7fIGwTPxWefT1uzLsTThhLpQ3TpIv/oqRNj/mwGG7fkjWEobURBsPdETO8wMY+Dh3/VDX/SDiY+CEsWmLj5eto8YoHDC/J/58MTYpMW3lWLy4b0ftijdE7zHjapgDp86lB+2NBi2GsZyowbXYybYKT+w56pXI7jh7oF+S/GubXhitweL2+4Ud10pbaBTIy/v1hwF3RbqS3c4EO2JzdlOX9R5/24WMVmIOr8+d74sMDfby5weT+3Qyerl22rLJl8yk1bxH+RJjdMyUG1mRHBxklpPbpUnzc3wvYv3DonCKOhbMcbt6i9e8WGSJTPqzrDBcd2yImNepqIG62kzVsob+hy/uwcOrZY27jZy7ihS9zUJay5vIFLmPdx3VAsm9fZ2Ivz3BZ9wMqEl/NG9isHv/rWv09dwa6xNpr/7bffTs8/8Qz93id+MezmNVDuLEwMl4i/U7t0dbDzVhfLih27cJeuob0FUQ/EP2Oyjp9ZTOPP0NZsNny2Qnxra5HWyTr86Ya2gpCYjUKgQ0GUhUGa+Iu2R+nlYjjmJSjSB7JPzIPEj0fYNUjsukVI4nl3rjCZ5/2C8BekH4/9fC42t8ayg2AYy/dJULBmMu5wxAIgH8tdwOI1IlFr8k/nzP2Y2lhdb2KfN+NWwgHbh5EudgTjMG62pO5MrQ6pepheu7u+VkCUXQGNnbpkGSBvFcLtEl0iXbVzVkpT5I47dyUFa1hjuUwXj7XdvrCtrJChECh3AKPUr9yXDo6tcXP5Kqu7b+mdvXD3rpA2rI2+T/Pcp/SYtsj3PaT5cV3m9Zg/aS1DZ4d0fQf/+PgLYXvb/cLaaP5XX301PTv/RzrRn6ZTcRvHGZM6Za0/HL3LcQ67PkygsO0jdVnbZyGxmJB9x0eKE3Qg/kja8TOQ+YLxyS/a8ltDeIv8kLc1S8IgTdDhfEj8oT7H0WKgaGIg8UM8Lh7U+gNAi5ZCgCLhz+PRi3gIV7V31lJGsg/lF0e3OHbzWHdxdDxBPWv5UdPvxzGMsmaMD59A9t3QjUj6Y/9636Vt79gqSHq9y5ZEuHYk+8bWeoLUtbafBIhM49FEoYGkn4UCCo1pooc7lOoVaQ2S99USJWp57fKsUas0UskgKBIRe8pkT3nNhLAHUk8auQu69ZDHZO8I0oNRO6T1cSX2SbtnciewEpLy1kFa1yVi18KIktLXJWvBx3Y9W9VhpMBecOKqw/yWZNzTDObdeH3DuhiPw9x3i/m90JTHTyT/oPi4eTpBHwRLP15HH+/XsKZcnndpSeNd9Xk2OMi85JJLmnd8L7A25H/kyBH6uz//2sI0PR00f97DdxYnAO7nGyaIhzATfs8CoA/xYUIlbT+S/oKTqZ+5EJ/NSuLvIR6If0H6A/n7GKZQbiEE2BqI9YT2P+vGtCgEqqSvBUAH7K+InokY0wqtPwmC0iIYJumotc8F4bvFsYtxH+ILIRDrBQsg1BvJfpQVjuYdx0fiD00OeV0UAOkYrYGug3waiTwc+3If1ZqmX8lD0m7tJZzLKNKHsLYEKLXZInoPgoAwNYdXIPkib8JSaKZPafyFNRmT2UXDBMzEzyQvjmg9A8En0gfC53Q3kj7vsz0eOQ2OYdqzxh4Vuw72z+4ILHoHZcejj4QftPi4fnxcS8nDhOSfji6KBl8IALYCurjWRqKfj0c3zusUj8oQt8xPCEPfB0O4z0b9eH/ZAnZREMR55NOszBMH+nzFFVc0ZsPeYG3I/4YbbqDX+5N0fH6KthaDuJVcP3oDdycmRkqPGsMoFLpxMi00z5kf0uYxPAuTb0YxPvz58bPlczh/5mNeP4ZDGQwPxL9guW6R1s2j778fPyIObqJxtoPG32UBgGSUWEocczi7VyruHzwOE0+5agatf9T+Yzy4e5T7B4VGqDOX8VQn+/+zli9dQB76iuUKYp/Q+KUrKi+YmrZfCoU4fiS1eM7nXG0RMNAyKNL0fy/TpZDQ4SyMamWm0gpMCgPl7GEXDLhTWi4fmV+6a8r0bJVL0u6ytYzuHrbgwe3Dmv9YR7tznRAE6FrqWKiJkXCg+ce0tIwy8afN1pVAYA0/W791l09y/fB8DWuiT5Yz8dzsQdhwH+IR79EfvfHP9OBX/3aVO79jrI3Pf8CNN95IP/zXF+jXL/nkSP6D5p/MvLYASOTPzwhggmXNfzwObpnB1cNp6OvHz9Zw7Cp5WzEvuoCGZwODBYDtFi6gTi0WFgTKEijcD3pisK8wzNM+PWhKxNrHCVsRAkzemcC1IGDylyQvw3MQBjJeI37v+2mhUBEAmuRLVxCPS831k3T3ShrKUtTUpatHlxEkX3XvcM2c0dL6C4ExQfwtF1OJluZf5jn07yeCjzHHR3D/FMTP9eQ85rKJ4EEYIHEzmWvCTvlsZXSYXxEyxfrPgkBdodD6cx4oWOFQtwKEUpLIvQcC90k4sMLEc5NEHZ8VFRA06dyxKw7u9J8e/Q86ceLE5EjKwEgAAAntSURBVJ3fLdZG8x9w77330mc/85ng+mGyR82/0PSLiTC6egatnv38IRy1/C7+zcASmC1stMESQCsgfWYzqv75rP2HdrpoAQSB0YXwYCG4Obt/SuJ30dRlLSqZrhWCy+4IOVmzZq3IFwQCk392/eSJmoh7PhcavtDuCwGgw/MK+ee3Hwrix7yWa2fCAqhp96TiqRyMWY28PbAvWl1Nrb2on3Nr5N8icCHYW/kTVsM02m6g7ANHS8A18jPZa6sgvVBR0fqlMGhYBULrl0KgIyyLwgL7gkfKbeYr4ktSpB9dMdqiJoprijLxU55zKAhQu2+lY14PggQVt3xTx/vs1A2+6aabVr7jO8Vaaf4DLrroIvrseT9JbMCx9p81fhKTSk8a1vxRGIym5KywAoaj67qo4YMV0M0Skbv4bCBZA+ozvt3AFoWyAmb5HGIRdK5cMPFTaJ4VgkPNto8Pe1H774WpCi4WpflnDV4JhHkf294e8QstyXtpAVSEQ7o+L9+2KASDyBvnCQqBgvwreQwUpjlNa/T5PDlF/0dLXbYn26q1r1uqCYf6OXVYA4m9USJr+bmSIE4hDArS5TZKAcC1nFqTNaHAfS3IHpQ5UVZr/SyclEDCK6vGsyM+k29FGNQIHrV6X3zyfNZ15DlQUfCin3xj/+x//41ee+21zfH5M55++mn69PWfpt/62KdoGI15GKxxkoRHLOlB75CdJyBOCAoP4KMVkEzRUHAUDrMsCJILhii9BorCgP304TzKTTQIgy7675Nm5EZh0cFrpXweRNMCiMjkH2NwRMHARya/RMTCAmANhIlxbGvSGkByJlW+IQxQe+a6dd8/vgsN1xvX35QLqGBlynX0WLD2X2dLIGwcU2y0irpGjlbEapDnw9kRp/aY5keFwEENNZPKZlWSq5VJxONkm/zAN2nEMDZA+OPDVikANFravyw9XqgUAkDyad1kjb6wOOAaHVxI4fuvjRooCQW0ABjGCZSPkuS5Gmr6Mj2Pfw5gvx565wd055137jvxh/Oum+Y/4NZbb6Xnn3mOfvXinxID01FyUuYJBH5M1CgY2XykNDNcbIc19WQeOioEARJ3SxCgcMkHtjhG10/nHNxluCrUrEQZOUeEC6HQakEoQFn5UJhJlMuXWrO0CrxorxA+kYzRipBaeS7PPdKWAS8oJE29EFuav0SppnvsawsN7b6oAQma4rw46ppSA8116hp/6xyhnB6jibI5s57bSi20/kZNaRFweYdFinNpdw2uY10erQAnloqbaLMsN5Ypel5emzS1KvlZ4y+QiL6eLtqqaCK633994j/p2LFjZXv7gLXT/Ac88cQTdM4554QwDtVcEIWSoqwuEXKsngROTu5E0iS1dyUIkjABTaQmEER73AZMdBLh3G2dLjXLCjnif0X6QiiAywOJVhBjQe5Qt9l2TRiodpb1jYhqmr+4zoo7psXlfrVIE5Mk2oKfrpnf39pBs6rlMlwn2+kelSWbRFg9n1dF8/0oddhKDecqpeqixuUFBRq8sBfy+hL9LFush1t9KdEaT+2nX6V+/Xxjf//y7Rfo+RdeaJxt77GWmj9jEAC/cfiT9czmDM8ZnvIkKSolPq+tHhQEVGpQidSdmKRlF7QgaBDBEj+t1hNxfWo9tUWwNb8zkndNs6/1tf4MguraD2WCkP3K56lqua3rU9xfHzXpzkHsiOCXoqFN7qq1g+1DSdkrlHdFypJ2Vzibm76SqhCoFm2Tf9leTXi065aa/FSZ5QKG+eWv3v4+fe/55+m6665r9HbvsZaaP+PDDz8MAuBzNQHQFFk1MowRVyeSGsF7yK0SPNaOwqDZJXG3OVLpSyGkKteC8YqWNknY/L9mpar8rNVNOk4KS2MZWAC6ibJycTg8UdGXis44lTmNie5Pnmeb2GshNE1f221jezW2X69lIxCMv9c5qoVRrQtzqXrPYPW6xm1NiWi1Fz1KGqTu7zKLwYmTTFkijr6+IP5HHn30QIk/nHudNX/GueeeS0cuunqyzKoXMU1lq7U1me8lkW6nbjuv3et2eukimT53mVukLFloU1hRn9w29o9I96bkuvdvZ6W3h+m29/7Mu22xJtZ2p91LhQTzvv72y/TYY4+F3zY7aKy15s84efIk3XbbbfQP3/wmfe6ya5rltuNhXV1Y7P5sKyjEhWtnVUyV1m6mqUWBE1T6nKGFmo3t9Vm2g/0SCXtx5p21sp8kurftHzQlT+Ogrmu3tcv80TTQ68yLEmDJRJ3skaOv0Md/4hP0zn+9Q4cPH955h3eBj4Tmz3jxxRfDlx+OvfseXbZ1Lv3yRVdOlt/JhU3XWe5i2W0/0kRZqVLrrYxq0ZWx/wS2/9RyUOR1ENdSP++Zwg6u+IAZ5syNzTS+8/7r9N+njtPphQS4//776b777juj/flIkT/jySefpAceeICee+45mp86FX4I7tcunnYLHSTqHvv2pPQTeeuCM6ejL8e6j53GOo/ldvDR6OWZxyPvvEKnF6v8mmuuoS984Qt0zz33nOkuBXwkyR/x0EMP0csvv0yvvPIKvfrqq/TGG2+MX7xa4M033wzHyy+/XNTh9J1gaGun9XU/dopVzn/8+HE6dOhQNX1VDN9h2Cucd955zTz+DZOrrrpqz87Xwm7u/U7Quufb6ccwPgcxNssw1ee9mts/LrjwwgvpyiuvDD9Vf+2119Ldd999prtU4CNP/h8l3HzzzWEh3/+V309vCPEDIPklmfjVdc4JB/Vtym6Mf/FLX6RLLr6Ejtx5hMKP6IZvDI91x68g5M1lhlT9C4n8o3Njk/zwypH+7sJ49MTfOKX4OmgIeXb9xy968Wug/MffgPSUvrAlXhUtvjuQXV/wcmhqm4FvO1UfWLdeP/U+jf124OKrI8KHi89B0pshjmDwynfW4d7GoRb3v+Nveju+j9xO/lITpTnh1Jcb4YtR4tu0sV4c9xjMR5JvhY0/XjaGe7hffP3jlwbH+81fIBzHNs+Bod63nv0neuZbz9A3HvxGtT38uRK893iu2HAa9bffeos+/zufD79DZdg5bAN3g8Fg2EAY+RsMBsMGwsj/oGFONoPBsAYw8j9grPaVKIPBYNhfGPkbDAbDBsLI/wCxfKMNg8FgOBgY+RsMBsMGwsjfYDAYNhBG/gaDwbCBMPI3GAyGDYSRv8FgMGwgjPwNBoNhA2HkbzAYDBsII/8DhGtuKGowGAwHCyN/g8Fg2EAY+RsMBsMGwsjfYDAYNhBG/gaDwbCBMPI3GAyGDYSRv8FgMGwgjPwNBoNhA2Hkf4Cw3/M3GAzrAiP/A4Zt42gwGNYBRv4HDeN+g8GwBjDyNxgMhg2Ekb/BYDBsIIz8DQaDYQNh5G8wGAwbCCN/g8Fg2EAY+RsMBsMG4v8BSZHaLLRcyjYAAAAASUVORK5CYII=;connectable=0;" vertex="1" parent="1">
                    <mxGeometry x="124" y="55" width="383" height="717" as="geometry"/>
                </mxCell>
                <mxCell id="3" value="" style="endArrow=none;dashed=1;html=1;dashPattern=1 3;strokeWidth=6;strokeColor=#FF0000;" edge="1" parent="1">
                    <mxGeometry width="50" height="50" relative="1" as="geometry">
                        <mxPoint x="75" y="497" as="sourcePoint"/>
                        <mxPoint x="601" y="491" as="targetPoint"/>
                    </mxGeometry>
                </mxCell>
                <mxCell id="5" value="" style="endArrow=none;dashed=1;html=1;dashPattern=1 3;strokeWidth=6;strokeColor=#0000FF;jumpStyle=none;" edge="1" parent="1">
                    <mxGeometry width="50" height="50" relative="1" as="geometry">
                        <mxPoint x="73" y="633" as="sourcePoint"/>
                        <mxPoint x="599" y="627" as="targetPoint"/>
                    </mxGeometry>
                </mxCell>
                <mxCell id="6" value="" style="endArrow=none;dashed=1;html=1;dashPattern=1 3;strokeWidth=6;strokeColor=#CC00CC;jumpStyle=none;" edge="1" parent="1">
                    <mxGeometry width="50" height="50" relative="1" as="geometry">
                        <mxPoint x="67" y="592" as="sourcePoint"/>
                        <mxPoint x="593" y="586" as="targetPoint"/>
                    </mxGeometry>
                </mxCell>
                <mxCell id="7" value="" style="ellipse;whiteSpace=wrap;html=1;aspect=fixed;fillColor=none;strokeColor=#00FFFF;strokeWidth=3;" vertex="1" parent="1">
                    <mxGeometry x="290" y="483" width="31" height="31" as="geometry"/>
                </mxCell>
                <mxCell id="9" value="&lt;font style=&quot;font-size: 36px;&quot;&gt;0&lt;/font&gt;" style="text;html=1;strokeColor=none;fillColor=none;align=center;verticalAlign=middle;whiteSpace=wrap;rounded=0;strokeWidth=3;" vertex="1" parent="1">
                    <mxGeometry x="589" y="478" width="60" height="30" as="geometry"/>
                </mxCell>
                <mxCell id="11" value="&lt;font style=&quot;font-size: 36px;&quot;&gt;H&lt;sub&gt;2&lt;/sub&gt;&lt;/font&gt;" style="text;html=1;strokeColor=none;fillColor=none;align=center;verticalAlign=middle;whiteSpace=wrap;rounded=0;" vertex="1" parent="1">
                    <mxGeometry x="581" y="569" width="60" height="30" as="geometry"/>
                </mxCell>
                <mxCell id="12" value="&lt;font style=&quot;font-size: 36px;&quot;&gt;H&lt;sub&gt;1&lt;/sub&gt;&lt;/font&gt;" style="text;html=1;strokeColor=none;fillColor=none;align=center;verticalAlign=middle;whiteSpace=wrap;rounded=0;" vertex="1" parent="1">
                    <mxGeometry x="594" y="613" width="60" height="30" as="geometry"/>
                </mxCell>
                <mxCell id="14" value="" style="shape=waypoint;sketch=0;fillStyle=solid;size=6;pointerEvents=1;points=[];fillColor=none;resizable=0;rotatable=0;perimeter=centerPerimeter;snapToPoint=1;strokeColor=#E6E6E6;strokeWidth=0;fontSize=36;" vertex="1" parent="1">
                    <mxGeometry x="695" y="382" width="20" height="20" as="geometry"/>
                </mxCell>
                <mxCell id="15" value="" style="shape=waypoint;sketch=0;fillStyle=solid;size=6;pointerEvents=1;points=[];fillColor=none;resizable=0;rotatable=0;perimeter=centerPerimeter;snapToPoint=1;strokeColor=#E6E6E6;strokeWidth=0;fontSize=36;" vertex="1" parent="1">
                    <mxGeometry x="6" y="358" width="20" height="20" as="geometry"/>
                </mxCell>
            </root>
        </mxGraphModel>
    </diagram>
</mxfile>